<?xml version="1.0" encoding="utf-8"?>
<!-- Generator: Adobe Illustrator 22.1.0, SVG Export Plug-In . SVG Version: 6.00 Build 0)  -->
<svg version="1.1" id="education" xmlns="http://www.w3.org/2000/svg" xmlns:xlink="http://www.w3.org/1999/xlink" x="0px" y="0px"
	 viewBox="0 0 82.1 122.8" style="enable-background:new 0 0 82.1 122.8;" xml:space="preserve">
<style type="text/css">
	.st0{fill:none;}
	.st1{fill:#A2CBEB;}
	.st2{fill:#0065A5;}
</style>
<title>Artboard 8</title>
<g>
	<path class="st0" d="M40.5,2.5c-0.1,0-0.1,0-0.2,0c0,0-0.1,0-0.1,0h0C40.3,2.5,40.4,2.5,40.5,2.5L40.5,2.5z"/>
	<path class="st0" d="M39.6,2.7c0,0-0.1,0-0.1,0l-0.1,0c0.1,0,0.2-0.1,0.3-0.1C39.6,2.7,39.6,2.7,39.6,2.7z"/>
	<path class="st0" d="M16.1,22.3c1.6,0,2.9-1.3,2.9-2.9s-1.3-2.9-2.9-2.9s-2.9,1.3-2.9,2.9c0,0,0,0,0,0C13.2,21,14.5,22.3,16.1,22.3
		z"/>
	<path class="st0" d="M38.9,3c-0.1,0.1-0.2,0.1-0.3,0.2C38.7,3.1,38.8,3.1,38.9,3L38.9,3z"/>
	<path class="st0" d="M39,3L39,3c0,0,0,0,0.1-0.1C39.1,2.9,39.1,2.9,39,3z"/>
	<path class="st0" d="M36.9,5.2L36.9,5.2c0,0.1-0.1,0.1-0.1,0.2s0,0.1-0.1,0.2s0,0.1-0.1,0.2h0C36.8,5.6,36.9,5.4,36.9,5.2z"/>
	<path class="st0" d="M40.8,2.5c-0.1,0-0.1,0-0.2,0h0c0.1,0,0.3,0,0.4,0C41,2.5,40.9,2.5,40.8,2.5z"/>
	<path class="st0" d="M41,11.3L41,11.3L41,11.3z"/>
	<path class="st0" d="M39.7,2.7c0.1,0,0.2-0.1,0.3-0.1C40,2.6,39.8,2.6,39.7,2.7z"/>
	<path class="st0" d="M65.9,22.3c1.6,0,2.9-1.3,2.9-2.9c0-1.6-1.3-2.9-2.9-2.9c-1.6,0-2.9,1.3-2.9,2.9c0,0,0,0,0,0
		C63,21,64.3,22.3,65.9,22.3z"/>
	<path class="st0" d="M37.2,4.8c0.1-0.1,0.1-0.2,0.2-0.3C37.3,4.6,37.2,4.7,37.2,4.8z"/>
	<path class="st0" d="M38,3.7c0.1,0,0.1-0.1,0.2-0.1C38.1,3.6,38,3.7,38,3.7z"/>
	<path class="st0" d="M38.4,3.3c0,0-0.1,0.1-0.1,0.1c0,0,0,0-0.1,0C38.3,3.4,38.4,3.3,38.4,3.3L38.4,3.3z"/>
	<path class="st0" d="M37.5,4.3c0,0-0.1,0.1-0.1,0.1l0,0c0.1-0.1,0.1-0.2,0.2-0.3C37.5,4.2,37.5,4.2,37.5,4.3z"/>
	<path class="st0" d="M37.7,3.9c0,0-0.1,0.1-0.1,0.1C37.7,4,37.8,3.9,37.7,3.9C37.8,3.9,37.8,3.9,37.7,3.9z"/>
	<path class="st0" d="M37,5C37,5,37,5.1,37,5.2c0-0.1,0.1-0.2,0.2-0.3C37.1,4.9,37.1,4.9,37,5z"/>
	<path class="st0" d="M31.3,54.2L31.3,54.2c3.1,0,5.6,2.5,5.6,5.6C37,56.8,34.5,54.2,31.3,54.2z"/>
	<path class="st0" d="M50.6,77.9c-0.7,0-1.2-0.6-1.2-1.2l0,0C49.4,77.4,49.9,77.9,50.6,77.9c0.7,0,1.2-0.6,1.2-1.2l0,0
		C51.8,77.4,51.3,77.9,50.6,77.9z"/>
	<path class="st0" d="M29.9,99.1h3.9v16.4h18.3v-3.8H38.3c-0.7,0-1.2-0.6-1.2-1.2c0-0.7,0.6-1.2,1.2-1.2h13.8v-3.6H38.3
		c-0.7,0-1.2-0.6-1.2-1.2c0-0.7,0.6-1.2,1.2-1.2h13.8v-4L29.9,99.1L29.9,99.1z"/>
	<path class="st1" d="M37.9,10c0,0-0.1-0.1-0.1-0.1C37.8,9.9,37.8,10,37.9,10z"/>
	<path class="st1" d="M37.6,9.7c0-0.1-0.1-0.1-0.1-0.2C37.5,9.6,37.5,9.6,37.6,9.7z"/>
	<path class="st1" d="M36.6,6.6c0,0.1,0,0.2,0,0.3C36.6,6.8,36.6,6.7,36.6,6.6C36.6,6.6,36.6,6.6,36.6,6.6z"/>
	<path class="st1" d="M37.2,9.2C37.3,9.2,37.3,9.2,37.2,9.2C37.3,9.2,37.2,9.2,37.2,9.2C37.2,9.1,37.2,9.2,37.2,9.2z"/>
	<path class="st1" d="M36.6,7.4c0,0.1,0,0.3,0.1,0.4l0,0c-0.1-0.3-0.1-0.6-0.1-0.9C36.6,7.1,36.6,7.2,36.6,7.4z"/>
	<path class="st1" d="M36.7,6c0,0.1,0,0.1,0,0.2c0,0.1,0,0.1,0,0.2v0C36.6,6.3,36.7,6.1,36.7,6L36.7,6z"/>
	<path class="st1" d="M36.9,8.6c0-0.1-0.1-0.2-0.1-0.3C36.8,8.4,36.9,8.5,36.9,8.6z"/>
	<path class="st1" d="M37,8.8C37,8.8,37,8.8,37,8.8c0,0.1,0,0.1,0.1,0.1C37,8.8,37,8.8,37,8.8C37,8.7,37,8.8,37,8.8z"/>
	<path class="st1" d="M25.5,23.7c-1.8,0-3.5-0.3-5.2-0.8c-0.4,0.5-1,0.9-1.6,1.3l4.3,16.7V27.6c0,0,17,0.1,18.1-13.8l-0.2,0
		C38,19.8,32.1,23.7,25.5,23.7z"/>
	<path class="st1" d="M40.7,11.3C40.7,11.3,40.7,11.3,40.7,11.3c0.1,0,0.2,0,0.3,0c0,0,0,0,0,0l0,0C40.9,11.3,40.8,11.3,40.7,11.3z"
		/>
	<path class="st1" d="M39.7,11.1L39.7,11.1C39.7,11.1,39.7,11.1,39.7,11.1L39.7,11.1z"/>
	<path class="st1" d="M36.8,8.2c0-0.1-0.1-0.3-0.1-0.4C36.7,8,36.8,8.1,36.8,8.2z"/>
	<path class="st1" d="M38.1,10.2c0,0,0.1,0.1,0.1,0.1C38.2,10.3,38.1,10.2,38.1,10.2z"/>
	<path class="st1" d="M36.7,5.8c0,0.1,0,0.1-0.1,0.2C36.7,5.9,36.7,5.9,36.7,5.8L36.7,5.8z"/>
	<path class="st1" d="M39.3,11L39.3,11L39.3,11z"/>
	<path class="st1" d="M40.4,11.3c-0.1,0-0.1,0-0.2,0C40.3,11.3,40.4,11.3,40.4,11.3z"/>
	<path class="st1" d="M39.9,11.2c0,0,0.1,0,0.1,0c-0.1,0-0.2,0-0.2-0.1L39.9,11.2z"/>
	<path class="st2" d="M41,38c-16.6,0-30.1,13.5-30.1,30.1c0,11.4,6.4,21.8,16.5,26.9v1.6h-1.6c-0.7,0-1.2,0.6-1.2,1.2
		c0,0.7,0.6,1.2,1.2,1.2h1.6v17.6c0,0.7,0.6,1.2,1.2,1.2h5.1v3.5c0,0.7,0.6,1.2,1.2,1.2c0,0,0,0,0,0h12c0.7,0,1.2-0.6,1.2-1.2
		c0,0,0,0,0,0V118h5.1c0.7,0,1.2-0.6,1.2-1.2v-5h1.6c0.7,0,1.2-0.6,1.2-1.3c0-0.7-0.5-1.2-1.2-1.2h-1.6v-3.6h1.6
		c0.7,0,1.2-0.6,1.2-1.3c0-0.7-0.5-1.2-1.2-1.2h-1.6v-4h1.6c0.7,0,1.2-0.6,1.2-1.3c0-0.7-0.5-1.2-1.2-1.2h-1.6V95
		c14.8-7.5,20.8-25.6,13.3-40.5C62.8,44.4,52.4,38,41,38z M45.8,118v2.3h-9.5V118H45.8z M52.1,103.1H38.3c-0.7,0-1.3,0.5-1.3,1.2
		c0,0.7,0.5,1.3,1.2,1.3c0,0,0,0,0.1,0h13.8v3.6H38.3c-0.7,0-1.3,0.5-1.3,1.2c0,0.7,0.5,1.3,1.2,1.3c0,0,0,0,0.1,0h13.8v3.8H29.9
		V99.1h22.2L52.1,103.1z M52.8,93.1C52.8,93.1,52.8,93.1,52.8,93.1c-0.1,0.1-0.1,0.1-0.2,0.1c0,0-0.1,0-0.1,0.1c0,0-0.1,0.1-0.1,0.1
		c0,0,0,0.1-0.1,0.1s0,0.1-0.1,0.1s0,0.1-0.1,0.1c0,0,0,0.1-0.1,0.1c0,0,0,0.1,0,0.1c0,0,0,0.1,0,0.1c0,0,0,0.1,0,0.1
		c0,0,0,0.1,0,0.1v2.4H29.9v-2.4c0,0,0-0.1,0-0.1c0,0,0-0.1,0-0.1c0,0,0-0.1,0-0.1c0,0,0-0.1,0-0.1s0-0.1-0.1-0.1c0,0,0-0.1-0.1-0.1
		c0,0,0-0.1-0.1-0.1s0-0.1-0.1-0.1s-0.1-0.1-0.1-0.1c0,0-0.1,0-0.1-0.1c0,0-0.1-0.1-0.1-0.1c0,0,0,0-0.1,0c-3.2-1.5-6.2-3.7-8.6-6.4
		c-0.2-0.2-0.4-0.5-0.6-0.7c-0.8-1-1.6-2-2.3-3.1c-0.2-0.3-0.3-0.5-0.5-0.8s-0.3-0.6-0.5-0.8c-0.5-1-1-2-1.4-3.1
		c-0.1-0.3-0.2-0.6-0.3-0.9c-5-14.4,2.5-30.2,16.9-35.2S62.1,44.6,67.1,59c1,2.9,1.6,6,1.6,9.1c0,1.6-0.1,3.3-0.4,4.9
		C66.6,81.8,60.9,89.3,52.8,93.1L52.8,93.1z"/>
	<rect x="36.3" y="118" class="st1" width="9.5" height="2.3"/>
	<path class="st1" d="M41,40.5c-15.2,0-27.6,12.3-27.6,27.5c0,3.1,0.5,6.3,1.6,9.2c0.1,0.3,0.2,0.6,0.3,0.9c0.4,1,0.9,2.1,1.4,3.1
		c0.2,0.3,0.3,0.6,0.5,0.8s0.3,0.6,0.5,0.8C18.4,84,19.2,85,20,86c0.2,0.2,0.4,0.5,0.6,0.7c2.4,2.7,5.3,4.8,8.6,6.4c0,0,0,0,0.1,0
		c0,0,0.1,0,0.1,0.1c0,0,0.1,0,0.1,0.1c0,0,0.1,0.1,0.1,0.1c0,0,0,0.1,0.1,0.1s0,0.1,0.1,0.1c0,0,0,0.1,0.1,0.1c0,0,0,0.1,0.1,0.1
		s0,0.1,0,0.1c0,0,0,0.1,0,0.1c0,0,0,0.1,0,0.1c0,0,0,0.1,0,0.1v2.4h22.2v-2.4c0,0,0-0.1,0-0.1c0,0,0-0.1,0-0.1c0,0,0-0.1,0-0.1
		c0,0,0-0.1,0-0.1c0,0,0-0.1,0.1-0.1c0,0,0-0.1,0.1-0.1s0-0.1,0.1-0.1s0-0.1,0.1-0.1c0,0,0.1-0.1,0.1-0.1c0,0,0.1-0.1,0.1-0.1
		c0,0,0.1-0.1,0.1-0.1c0,0,0,0,0.1,0c8-3.8,13.8-11.3,15.4-20.1c0.3-1.6,0.4-3.3,0.4-4.9C68.6,52.9,56.3,40.5,41,40.5z M39.5,59.9
		v21.7c0,0.7-0.6,1.2-1.2,1.2S37,82.3,37,81.6V70.9H25.7v10.7c0,0.7-0.6,1.2-1.2,1.2c-0.7,0-1.2-0.6-1.2-1.2c0,0,0,0,0,0V59.9
		c0-4.5,3.6-8.1,8.1-8.1c3.9,0,7.2,2.7,8,6.5c0.1,0.3,0.1,0.5,0.1,0.8C39.5,59.3,39.5,59.6,39.5,59.9L39.5,59.9z M57.6,70.9h-5.8
		v5.8l0,0c0,0.7-0.6,1.2-1.2,1.2s-1.2-0.6-1.2-1.2l0,0v-5.8h-5.8c-0.7,0-1.2-0.6-1.2-1.3c0-0.7,0.5-1.2,1.2-1.2h5.8v-5.8
		c0-0.7,0.6-1.2,1.2-1.2s1.2,0.6,1.2,1.2l0,0v5.8h5.8c0.7,0,1.2,0.6,1.2,1.3C58.8,70.4,58.3,70.9,57.6,70.9z"/>
	<path class="st2" d="M6,48.8L9.9,51c0.2,0.1,0.4,0.2,0.6,0.2c0.7,0,1.2-0.6,1.2-1.2c0-0.4-0.2-0.9-0.6-1.1l-3.9-2.3
		c-0.6-0.3-1.4-0.1-1.7,0.5C5.2,47.6,5.4,48.4,6,48.8L6,48.8z"/>
	<path class="st2" d="M7,67.6c0-0.7-0.6-1.2-1.2-1.2c0,0,0,0,0,0H1.2c-0.7,0-1.2,0.6-1.2,1.3c0,0.7,0.5,1.2,1.2,1.2h4.6
		C6.5,68.8,7,68.3,7,67.6z"/>
	<path class="st2" d="M9.9,84.1L6,86.4c-0.6,0.3-0.8,1.1-0.5,1.7c0.3,0.6,1.1,0.8,1.7,0.5l3.9-2.3c0.6-0.3,0.8-1.1,0.5-1.7
		C11.2,84,10.5,83.8,9.9,84.1z"/>
	<path class="st2" d="M76.1,86.4l-3.9-2.3c-0.6-0.4-1.4-0.2-1.7,0.4s-0.2,1.4,0.4,1.7c0,0,0,0,0,0l3.9,2.3c0.6,0.4,1.4,0.2,1.7-0.4
		C76.9,87.5,76.7,86.8,76.1,86.4C76.1,86.4,76.1,86.4,76.1,86.4z"/>
	<path class="st2" d="M80.8,66.3h-4.5c-0.7,0-1.2,0.6-1.2,1.2c0,0.7,0.6,1.2,1.2,1.2h4.5c0.7,0,1.2-0.6,1.2-1.2
		C82.1,66.9,81.5,66.3,80.8,66.3z"/>
	<path class="st2" d="M70.5,50.6c0.3,0.6,1.1,0.8,1.7,0.5c0,0,0,0,0,0l3.9-2.3c0.6-0.3,0.8-1.1,0.5-1.7c-0.3-0.6-1.1-0.8-1.7-0.5
		l0,0l-3.9,2.3C70.3,49.2,70.1,50,70.5,50.6C70.5,50.6,70.5,50.6,70.5,50.6z"/>
	<path class="st2" d="M39.3,58.2c-0.9-4.4-5.2-7.2-9.6-6.3c-3.8,0.8-6.5,4.1-6.5,8v21.7c0,0.7,0.6,1.2,1.2,1.2
		c0.7,0,1.2-0.6,1.2-1.2c0,0,0,0,0,0V70.9H37v10.7c0,0.7,0.6,1.2,1.2,1.2s1.2-0.6,1.2-1.2V59.9c0-0.3,0-0.6,0-0.8
		C39.4,58.8,39.4,58.5,39.3,58.2z M37,59.9L37,59.9v8.5H25.7v-8.5c0-3.1,2.5-5.6,5.6-5.6l0,0C34.5,54.2,37,56.8,37,59.9L37,59.9z"/>
	<path class="st1" d="M31.3,54.2L31.3,54.2c-3.1,0-5.6,2.5-5.6,5.6v8.5H37v-8.5l0,0l0,0C37,56.8,34.5,54.2,31.3,54.2z"/>
	<path class="st2" d="M57.6,68.4h-5.8v-5.8c0-0.7-0.6-1.2-1.2-1.2s-1.2,0.6-1.2,1.2l0,0v5.8h-5.8c-0.7,0-1.2,0.6-1.2,1.3
		c0,0.7,0.5,1.2,1.2,1.2h5.8v5.8c0,0.7,0.6,1.2,1.2,1.2s1.2-0.6,1.2-1.2v-5.8h5.8c0.7,0,1.2-0.6,1.2-1.3
		C58.8,69,58.3,68.4,57.6,68.4z"/>
	<path class="st2" d="M16.1,24.8L16.1,24.8L20,39.6l0.5,1.8c0.1,0.5,0.6,0.9,1.2,0.9c0.1,0,0.2,0,0.3,0c0.7-0.2,1.1-0.8,0.9-1.5
		c0,0,0,0,0,0l-4.3-16.7c0.6-0.3,1.1-0.7,1.6-1.3c1.7,0.6,3.5,0.8,5.2,0.8c6.6,0,12.6-3.9,15.3-9.9l0.2,0H41c0.1,0,0.2,0,0.2,0
		c2.7,6,8.7,9.9,15.3,9.9c1.8,0,3.5-0.3,5.2-0.8c0.4,0.5,1,0.9,1.6,1.3l-4.3,16.7c-0.2,0.7,0.2,1.3,0.9,1.5c0,0,0,0,0,0
		c0.1,0,0.2,0,0.3,0c0.6,0,1.1-0.4,1.2-0.9l4.3-16.7h0.1c3,0,5.4-2.4,5.4-5.4c0-3-2.4-5.4-5.4-5.4c-3,0-5.4,2.4-5.4,5.4
		c0,0.4,0.1,0.9,0.2,1.3c-1.3,0.4-2.7,0.6-4.1,0.6c-5.4,0-10.4-3.1-12.8-8c3.5-1.5,5.1-5.6,3.6-9.1c-1.5-3.5-5.6-5.1-9.1-3.6
		c-2.5,1.1-4.2,3.6-4.2,6.3c0,0.1,0,0.1,0,0.2c0.1,2.7,1.7,5.1,4.2,6.2c-2.4,4.9-7.4,7.9-12.8,8c-1.4,0-2.8-0.2-4.1-0.6
		c0.1-0.4,0.2-0.8,0.2-1.3c0-3-2.4-5.4-5.4-5.4c-3,0-5.4,2.4-5.4,5.4C10.7,22.4,13.2,24.8,16.1,24.8L16.1,24.8z M65.9,16.5
		c1.6,0,2.9,1.3,2.9,2.9c0,1.6-1.3,2.9-2.9,2.9c-1.6,0-2.9-1.3-2.9-2.9c0,0,0,0,0,0C63,17.8,64.3,16.5,65.9,16.5L65.9,16.5z
		 M37.9,10c0,0-0.1-0.1-0.1-0.1c-0.1-0.1-0.1-0.1-0.2-0.2c0-0.1-0.1-0.1-0.1-0.2c-0.1-0.1-0.1-0.1-0.2-0.2c0,0,0,0-0.1-0.1
		s0-0.1,0-0.1c0-0.1-0.1-0.1-0.1-0.2c0,0,0-0.1,0-0.1c0,0,0,0,0,0c0,0,0-0.1,0-0.1s0-0.1-0.1-0.1c0-0.1-0.1-0.2-0.1-0.3
		c0,0,0,0,0-0.1c0-0.1-0.1-0.3-0.1-0.4c0,0,0,0,0,0s0,0,0,0c0-0.1,0-0.2-0.1-0.4c0-0.2,0-0.3,0-0.5c0-0.1,0-0.2,0-0.3
		c0,0,0-0.1,0-0.1s0-0.1,0-0.1v0c0-0.1,0-0.1,0-0.2c0-0.1,0-0.1,0-0.2l0,0v0c0-0.1,0-0.1,0-0.2s0-0.1,0.1-0.2s0-0.1,0.1-0.2
		s0-0.1,0.1-0.2v0l0,0C37,5.1,37,5,37,5s0.1-0.1,0.1-0.2l0-0.1c0.1-0.1,0.1-0.2,0.2-0.3c0,0,0,0,0-0.1l0,0c0,0,0.1-0.1,0.1-0.1
		s0.1-0.1,0.1-0.1c0,0,0,0,0.1-0.1c0,0,0.1-0.1,0.1-0.1s0,0,0.1-0.1c0,0,0.1-0.1,0.1-0.1s0.1-0.1,0.2-0.1s0.1-0.1,0.1-0.1l0.1,0
		c0,0,0.1-0.1,0.1-0.1l0.1,0c0,0,0.1,0,0.1-0.1c0.1-0.1,0.2-0.1,0.3-0.2l0,0l0,0L39,3c0,0,0.1,0,0.1,0c0.1,0,0.2-0.1,0.2-0.1l0.1,0
		c0,0,0.1,0,0.1,0s0.1,0,0.1,0l0.1,0c0.1,0,0.2-0.1,0.3-0.1l0.1,0h0c0,0,0.1,0,0.1,0s0.1,0,0.2,0c0,0,0,0,0,0l0.1,0c0,0,0,0,0,0
		c0.1,0,0.1,0,0.2,0s0.1,0,0.2,0c2.4,0,4.4,2,4.4,4.4s-2,4.4-4.4,4.4h0c0,0,0,0,0,0c-0.1,0-0.1,0-0.2,0c0,0-0.1,0-0.1,0
		c-0.1,0-0.2,0-0.3,0c-0.1,0-0.1,0-0.2,0s-0.2,0-0.2-0.1c0,0-0.1,0-0.1,0l-0.1,0l0,0l0,0l0,0c-0.1,0-0.2-0.1-0.4-0.1h0
		c-0.4-0.2-0.8-0.4-1.1-0.7c0,0-0.1-0.1-0.1-0.1C38,10.1,37.9,10.1,37.9,10z M16.1,16.5c1.6,0,2.9,1.3,2.9,2.9s-1.3,2.9-2.9,2.9
		s-2.9-1.3-2.9-2.9c0,0,0,0,0,0C13.2,17.8,14.5,16.5,16.1,16.5z"/>
	<path class="st1" d="M39.3,11L39.3,11c0.1,0.1,0.2,0.1,0.4,0.1c0,0,0,0,0,0l0,0c0.1,0,0.2,0,0.2,0.1s0.2,0,0.2,0.1s0.1,0,0.2,0
		c0.1,0,0.2,0,0.3,0c0.1,0,0.2,0,0.3,0h0l0,0c2.4,0,4.4-2,4.4-4.4s-2-4.4-4.4-4.4l0,0c-0.1,0-0.3,0-0.4,0l-0.1,0c-0.1,0-0.2,0-0.3,0
		l-0.1,0c-0.1,0-0.2,0.1-0.3,0.1l-0.1,0c-0.1,0-0.2,0.1-0.3,0.1c-0.1,0-0.2,0.1-0.2,0.1S39,3,38.9,3l0,0c-0.1,0.1-0.2,0.1-0.3,0.2
		c0,0-0.1,0-0.1,0.1c-0.1,0.1-0.2,0.1-0.2,0.2c0,0-0.1,0.1-0.1,0.1S38,3.7,38,3.7s-0.1,0.1-0.1,0.1S37.7,4,37.6,4.1c0,0,0,0-0.1,0.1
		c-0.1,0.1-0.1,0.2-0.2,0.3c0,0,0,0,0,0.1c-0.1,0.1-0.1,0.2-0.2,0.3c0,0,0,0,0,0.1C37.1,4.9,37,5,37,5.2l0,0
		c-0.1,0.2-0.1,0.4-0.2,0.6c0,0.1,0,0.1-0.1,0.2v0c0,0.1,0,0.3-0.1,0.4c0,0,0,0.1,0,0.1c0,0.1,0,0.3,0,0.4c0,0.3,0,0.6,0.1,0.9l0,0
		c0,0.1,0.1,0.3,0.1,0.4c0,0,0,0,0,0.1c0,0.1,0.1,0.2,0.1,0.3c0,0,0,0.1,0.1,0.1c0,0.1,0.1,0.1,0.1,0.2s0.1,0.1,0.1,0.2
		c0,0.1,0.1,0.1,0.1,0.2c0,0.1,0.1,0.2,0.2,0.2c0,0.1,0.1,0.1,0.1,0.2c0.1,0.1,0.1,0.1,0.2,0.2c0,0,0.1,0.1,0.1,0.1
		c0.1,0.1,0.1,0.1,0.2,0.2c0,0,0.1,0.1,0.1,0.1C38.5,10.6,38.9,10.8,39.3,11z"/>
	<polygon class="st1" points="29.9,99.1 29.9,99.1 29.9,115.5 33.8,115.5 33.8,115.5 33.8,99.1 	"/>
</g>
</svg>
