<?xml version="1.0" encoding="utf-8"?>
<!-- Generator: Adobe Illustrator 22.1.0, SVG Export Plug-In . SVG Version: 6.00 Build 0)  -->
<svg version="1.1" id="Calque_1" xmlns="http://www.w3.org/2000/svg" xmlns:xlink="http://www.w3.org/1999/xlink" x="0px" y="0px"
	 viewBox="0 0 800 600" style="enable-background:new 0 0 800 600;" xml:space="preserve">
<style type="text/css">
	.st0{display:none;fill:url(#SVGID_1_);}
	.st1{display:none;}
	.st2{display:inline;fill:#ECF3FA;}
	.st3{display:inline;opacity:0.1;fill:#464363;enable-background:new    ;}
	.st4{display:inline;}
	.st5{fill:#464363;}
	.st6{opacity:0.3;fill:#E2B2D3;enable-background:new    ;}
	.st7{opacity:0.1;fill:#464363;enable-background:new    ;}
	.st8{display:inline;opacity:0.7;}
	.st9{display:inline;opacity:0.4;}
	.st10{display:inline;opacity:0.8;}
	.st11{opacity:0.6;clip-path:url(#SVGID_3_);}
	.st12{opacity:0.2;clip-path:url(#SVGID_5_);enable-background:new    ;}
	.st13{clip-path:url(#SVGID_7_);fill:#EF4136;}
	.st14{display:inline;fill:#FFFFFF;}
	.st15{display:inline;fill:#3EB4E7;}
	.st16{opacity:0.2;clip-path:url(#SVGID_9_);enable-background:new    ;}
	.st17{opacity:0.2;clip-path:url(#SVGID_11_);enable-background:new    ;}
	.st18{opacity:0.2;clip-path:url(#SVGID_13_);enable-background:new    ;}
	.st19{clip-path:url(#SVGID_15_);fill:#AAD04C;}
	.st20{clip-path:url(#SVGID_17_);fill:#AAD04C;}
	.st21{clip-path:url(#SVGID_19_);fill:#AAD04C;}
	.st22{clip-path:url(#SVGID_21_);fill:#AAD04C;}
	.st23{display:inline;opacity:0.2;enable-background:new    ;}
	.st24{opacity:0.2;enable-background:new    ;}
	.st25{clip-path:url(#SVGID_23_);fill:#EF4136;}
	.st26{fill:#B68862;}
	.st27{opacity:0.6;clip-path:url(#SVGID_25_);}
	.st28{clip-path:url(#SVGID_27_);}
	.st29{display:inline;fill:none;stroke:#2B2842;stroke-width:1.4151;stroke-linecap:round;stroke-miterlimit:10;}
	.st30{fill:#2B2842;}
	.st31{fill:#F9C853;}
	.st32{opacity:0.2;clip-path:url(#SVGID_29_);fill:#464363;enable-background:new    ;}
	.st33{opacity:0.4;clip-path:url(#SVGID_31_);fill:#ECF3FA;enable-background:new    ;}
	.st34{opacity:0.1;enable-background:new    ;}
	.st35{fill:#ECF3FA;}
	.st36{fill:#514E72;}
	.st37{clip-path:url(#SVGID_33_);fill:#EF4136;}
	.st38{display:inline;fill:none;stroke:#464363;stroke-width:1.8057;stroke-linecap:round;stroke-miterlimit:10;}
	.st39{fill:#447CBF;}
	.st40{opacity:7.000000e-02;clip-path:url(#SVGID_35_);enable-background:new    ;}
	.st41{opacity:7.000000e-02;clip-path:url(#SVGID_37_);enable-background:new    ;}
	.st42{opacity:0.1;clip-path:url(#SVGID_39_);fill:#FFFFFF;enable-background:new    ;}
	.st43{opacity:0.1;clip-path:url(#SVGID_41_);fill:#FFFFFF;enable-background:new    ;}
	.st44{opacity:0.1;clip-path:url(#SVGID_43_);fill:#FFFFFF;enable-background:new    ;}
	.st45{fill:none;stroke:#2B2842;stroke-width:1.8057;stroke-linecap:round;stroke-miterlimit:10;}
	.st46{fill:none;stroke:#2B2842;stroke-width:2.7085;stroke-linecap:round;stroke-miterlimit:10;}
	.st47{fill:#E26240;}
	.st48{opacity:0.5;}
	.st49{font-family:'ArialMT';}
	.st50{font-size:7.5883px;}
	.st51{opacity:0.4;}
	.st52{font-size:11.1628px;}
	.st53{opacity:0.3;}
	.st54{font-size:13.863px;}
	.st55{opacity:0.8;}
	.st56{fill:#E2C1A3;}
	.st57{opacity:0.4;clip-path:url(#SVGID_45_);fill:#ECF3FA;enable-background:new    ;}
	.st58{opacity:0.7;clip-path:url(#SVGID_47_);fill:#CCAF94;enable-background:new    ;}
	.st59{opacity:0.4;clip-path:url(#SVGID_49_);fill:#CCAF94;enable-background:new    ;}
	.st60{opacity:0.2;clip-path:url(#SVGID_51_);fill:#ECF3FA;enable-background:new    ;}
	.st61{fill:#FFFFFF;}
	.st62{opacity:0.2;fill:#FFFFFF;enable-background:new    ;}
	
		.st63{display:inline;fill:none;stroke:#464363;stroke-width:1.8057;stroke-linecap:round;stroke-linejoin:round;stroke-miterlimit:10;}
	.st64{fill:#F2D3BD;}
	.st65{opacity:0.5;clip-path:url(#SVGID_53_);}
	.st66{fill:#DDC0A2;}
	.st67{opacity:0.5;clip-path:url(#SVGID_55_);}
	.st68{clip-path:url(#SVGID_57_);fill:none;stroke:#D57346;stroke-width:10.8341;stroke-miterlimit:10;}
	.st69{clip-path:url(#SVGID_59_);fill:none;stroke:#EB9F6D;stroke-width:9.9312;stroke-miterlimit:10;}
	
		.st70{opacity:0.3;clip-path:url(#SVGID_61_);fill:none;stroke:#DDC0A2;stroke-width:9.9312;stroke-miterlimit:10;enable-background:new    ;}
	
		.st71{opacity:0.3;clip-path:url(#SVGID_63_);fill:none;stroke:#DDC0A2;stroke-width:3.6114;stroke-miterlimit:10;enable-background:new    ;}
	.st72{clip-path:url(#SVGID_65_);fill:none;stroke:#EB9F6D;stroke-width:1.8057;stroke-miterlimit:10;}
	.st73{clip-path:url(#SVGID_67_);fill:none;stroke:#EB9F6D;stroke-width:6.3199;stroke-miterlimit:10;}
	.st74{clip-path:url(#SVGID_69_);fill:none;stroke:#EB9F6D;stroke-width:1.8057;stroke-miterlimit:10;}
	.st75{fill:none;}
	.st76{fill:#EB9F6D;stroke:#F2D0B5;stroke-width:2.3492;stroke-miterlimit:10;}
	.st77{display:inline;fill:none;stroke:#464363;stroke-width:2.7085;stroke-linecap:round;stroke-miterlimit:10;}
	.st78{fill:#B9DEE1;}
	.st79{opacity:0.12;enable-background:new    ;}
	.st80{opacity:0.2;fill:#ECF3FA;enable-background:new    ;}
	.st81{fill:none;stroke:#464363;stroke-width:1.3768;stroke-linecap:round;stroke-miterlimit:10;}
	.st82{display:inline;fill:#464363;}
	.st83{display:none;fill:#FFFFFF;enable-background:new    ;}
	.st84{font-size:23.801px;}
</style>
<linearGradient id="SVGID_1_" gradientUnits="userSpaceOnUse" x1="50" y1="-50.11" x2="750" y2="649.89" gradientTransform="matrix(1 0 0 -1 0 599.89)">
	<stop  offset="0" style="stop-color:#161742"/>
	<stop  offset="1" style="stop-color:#0B0935"/>
</linearGradient>
<rect y="0" class="st0" width="800" height="600"/>
<g class="st1">
	<circle class="st2" cx="622.8" cy="463.3" r="31"/>
	<path class="st3" d="M622.8,494.3c17.1,0,31-13.9,31-31c0-9.1-3.9-17.3-10.2-23c5,5.5,8,12.8,8,20.8c0,17.1-16.1,32.8-33.2,32.8"/>
	<g class="st4">
		<circle class="st5" cx="615.4" cy="467.9" r="1.9"/>
		<circle class="st6" cx="612.7" cy="472.5" r="1.4"/>
		<circle class="st6" cx="632.8" cy="472.5" r="1.4"/>
		<circle class="st5" cx="630.1" cy="467.9" r="1.9"/>
	</g>
	<g class="st4">
		<circle class="st7" cx="625.7" cy="445.7" r="3.2"/>
		<path class="st7" d="M623.5,445.7c0-1.6,1.2-2.9,2.7-3.1c-0.2,0-0.3,0-0.5,0c-1.7,0-3.2,1.4-3.2,3.2s1.4,3.2,3.2,3.2
			c0.2,0,0.3,0,0.5,0C624.6,448.6,623.5,447.3,623.5,445.7z"/>
	</g>
	<g class="st8">
		<circle class="st7" cx="614.1" cy="442.7" r="1.6"/>
		<path class="st7" d="M613,442.7c0-0.8,0.6-1.5,1.4-1.6c-0.1,0-0.2,0-0.2,0c-0.9,0-1.6,0.7-1.6,1.6s0.7,1.6,1.6,1.6
			c0.1,0,0.2,0,0.2,0C613.6,444.2,613,443.5,613,442.7z"/>
	</g>
	<g class="st9">
		<circle class="st7" cx="603" cy="464.9" r="5.6"/>
		<path class="st7" d="M599.1,464.9c0-2.8,2.1-5.1,4.8-5.6c-0.3,0-0.6-0.1-0.9-0.1c-3.1,0-5.6,2.5-5.6,5.6c0,3.1,2.5,5.6,5.6,5.6
			c0.3,0,0.6,0,0.9-0.1C601.2,470.1,599.1,467.8,599.1,464.9z"/>
	</g>
	<g class="st9">
		<circle class="st7" cx="641.6" cy="478.6" r="5.6"/>
		<path class="st7" d="M637.7,478.6c0-2.8,2.1-5.1,4.8-5.6c-0.3,0-0.6-0.1-0.9-0.1c-3.1,0-5.6,2.5-5.6,5.6c0,3.1,2.5,5.6,5.6,5.6
			c0.3,0,0.6,0,0.9-0.1C639.8,483.8,637.7,481.4,637.7,478.6z"/>
	</g>
	<g class="st10">
		<circle class="st7" cx="642.5" cy="458.2" r="3.6"/>
		<path class="st7" d="M640,458.2c0-1.8,1.3-3.3,3.1-3.6c-0.2,0-0.4-0.1-0.6-0.1c-2,0-3.6,1.6-3.6,3.6s1.6,3.6,3.6,3.6
			c0.2,0,0.4,0,0.6-0.1C641.3,461.5,640,460,640,458.2z"/>
	</g>
	<g class="st4">
		<g>
			<defs>
				<circle id="SVGID_2_" cx="622.8" cy="463.3" r="31"/>
			</defs>
			<clipPath id="SVGID_3_">
				<use xlink:href="#SVGID_2_"  style="overflow:visible;"/>
			</clipPath>
			<g class="st11">
				<circle class="st7" cx="604.2" cy="485.8" r="5.6"/>
				<path class="st7" d="M600.3,485.8c0-2.8,2.1-5.1,4.8-5.6c-0.3,0-0.6-0.1-0.9-0.1c-3.1,0-5.6,2.5-5.6,5.6c0,3.1,2.5,5.6,5.6,5.6
					c0.3,0,0.6,0,0.9-0.1C602.4,490.9,600.3,488.6,600.3,485.8z"/>
			</g>
		</g>
	</g>
	<path class="st2" d="M593.4,457.8c0,0-0.9-2.3-1.5-2.8c-0.2-0.2-0.4-0.4-0.3-0.7l1.2-3.2c0.1-0.3,0.4-0.4,0.7-0.3l2.6,0
		c0.3,0.1,0.4,0.4,0.3,0.7l-2.2,6C593.9,457.8,593.6,457.9,593.4,457.8z"/>
	<path class="st2" d="M618.1,492.4c0,0-2.2,1-2.7,1.6c-0.2,0.2-0.4,0.4-0.7,0.3l-3.3-1.1c-0.3-0.1-0.4-0.4-0.3-0.7L611,490
		c0.1-0.3,0.4-0.4,0.7-0.3l6.1,2C618.1,491.8,618.2,492.1,618.1,492.4z"/>
	<path class="st2" d="M633,435.1c0,0,2.4-0.4,3.1-0.9c0.2-0.2,0.5-0.3,0.7-0.1l5.7,3.4c0.2,0.2,0.3,0.5,0.1,0.7l-0.6,2.5
		c-0.2,0.2-0.5,0.3-0.7,0.1l-8.2-5C632.9,435.7,632.8,435.4,633,435.1z"/>
	<path class="st3" d="M636.8,434.1c0,0,0.8,1.2,2.3,2c2,1.1,3.4,1.4,3.4,1.4"/>
	<g class="st4">
		<circle class="st5" cx="622.8" cy="477.2" r="3.5"/>
		<g>
			<g>
				<defs>
					<circle id="SVGID_4_" cx="622.8" cy="477.2" r="3.5"/>
				</defs>
				<clipPath id="SVGID_5_">
					<use xlink:href="#SVGID_4_"  style="overflow:visible;"/>
				</clipPath>
				<path class="st12" d="M624.6,473.3l-1,0.3c0.8-0.2,1.6,0.2,1.8,1l0,0.1c0.9,3.2-0.8,6.5-3.8,7.7c0.2,0,0.3-0.1,0.5-0.1l0,0
					c3.4-1,5.3-4.5,4.4-7.9l0-0.1C626.2,473.5,625.4,473.1,624.6,473.3z"/>
			</g>
			<g>
				<defs>
					<circle id="SVGID_6_" cx="622.8" cy="477.2" r="3.5"/>
				</defs>
				<clipPath id="SVGID_7_">
					<use xlink:href="#SVGID_6_"  style="overflow:visible;"/>
				</clipPath>
				<ellipse class="st13" cx="622.8" cy="482.1" rx="4.1" ry="3.2"/>
			</g>
		</g>
	</g>
	<circle class="st14" cx="614.5" cy="467" r="0.3"/>
	<circle class="st14" cx="629.2" cy="467" r="0.3"/>
</g>
<g class="st1">
	<circle class="st15" cx="615.4" cy="91" r="51.2"/>
	<g class="st4">
		<g>
			<circle class="st5" cx="598.8" cy="98.7" r="3.2"/>
			<circle class="st5" cx="632" cy="98.7" r="3.2"/>
		</g>
	</g>
	<circle class="st14" cx="597" cy="97.8" r="0.6"/>
	<circle class="st14" cx="630.2" cy="97.8" r="0.6"/>
	<g class="st4">
		<g>
			<defs>
				<circle id="SVGID_8_" cx="616.5" cy="92" r="51.2"/>
			</defs>
			<clipPath id="SVGID_9_">
				<use xlink:href="#SVGID_8_"  style="overflow:visible;"/>
			</clipPath>
			<path class="st16" d="M609.1,41.3c0,0,4.2,12.5,1.5,16.7s-6.5,10.3-12.6,11s-8.5-3.4-12.7,0.8s-5.7,10-4.5,13.2
				c1.2,3.3,5.4,10.6,5.4,10.6s0.6,7.8-0.3,9.3s-0.3,3.8-8.4,6.5s-24.1-3.5-24.1-3.5L543.5,58L586,30L609.1,41.3z"/>
		</g>
		<g>
			<defs>
				<circle id="SVGID_10_" cx="616.5" cy="92" r="51.2"/>
			</defs>
			<clipPath id="SVGID_11_">
				<use xlink:href="#SVGID_10_"  style="overflow:visible;"/>
			</clipPath>
			<path class="st17" d="M700.8,88.9c0,0-11.4,6.7-16,4.8s-11.4-4.3-13.3-10.1s1.7-9-3.3-12.3s-10.9-3.6-13.9-1.8S645,77,645,77
				s-7.5,2.2-9.1,1.6s-3.8,0.5-8.1-6.9c-4.3-7.4-5-45.8-5-45.8l48.6,2.2l35.9,36L700.8,88.9z"/>
		</g>
		<g>
			<defs>
				<circle id="SVGID_12_" cx="616.5" cy="92" r="51.2"/>
			</defs>
			<clipPath id="SVGID_13_">
				<use xlink:href="#SVGID_12_"  style="overflow:visible;"/>
			</clipPath>
			<path class="st18" d="M608,95.6c-1.1-1.4-1.8-5.2-1.4-7.1c0.5-1.9,1.1-4.6,2.6-5.2s2.4,1.2,3.2-0.8c0.8-1.9,0.9-4.5,0.4-5.8
				c-0.5-1.4-2-4.3-2-4.3s-0.6-3.3-0.5-4c0.1-0.7-0.1-1.6,1.8-3.1c1.9-1.5,6.4,0.6,6.4,0.6s6.3,15,5.4,20.1
				c-0.7,4-5.3,12.9-9.3,13.5C612.8,99.9,609.3,97.1,608,95.6z"/>
		</g>
	</g>
	<g class="st4">
		<g>
			<defs>
				<circle id="SVGID_14_" cx="615.4" cy="91" r="51.2"/>
			</defs>
			<clipPath id="SVGID_15_">
				<use xlink:href="#SVGID_14_"  style="overflow:visible;"/>
			</clipPath>
			<path class="st19" d="M608,40.3c0,0,4.2,12.5,1.5,16.7S603,67.3,597,68s-8.5-3.4-12.7,0.8s-5.7,10-4.5,13.2
				c1.2,3.3,5.4,10.6,5.4,10.6s0.6,7.8-0.3,9.3s-0.3,3.8-8.4,6.5s-24.1-3.5-24.1-3.5L542.4,57l42.4-28L608,40.3z"/>
		</g>
		<g>
			<defs>
				<circle id="SVGID_16_" cx="615.4" cy="91" r="51.2"/>
			</defs>
			<clipPath id="SVGID_17_">
				<use xlink:href="#SVGID_16_"  style="overflow:visible;"/>
			</clipPath>
			<path class="st20" d="M699.7,87.9c0,0-11.4,6.7-16,4.8s-11.4-4.3-13.3-10.1s1.7-9-3.3-12.3s-10.9-3.6-13.9-1.8
				c-3,1.8-9.3,7.4-9.3,7.4s-7.5,2.2-9.1,1.6s-3.8,0.5-8.1-6.9c-4.3-7.4-5-45.8-5-45.8l48.6,2.2l35.9,36L699.7,87.9z"/>
		</g>
		<g>
			<defs>
				<circle id="SVGID_18_" cx="615.4" cy="91" r="51.2"/>
			</defs>
			<clipPath id="SVGID_19_">
				<use xlink:href="#SVGID_18_"  style="overflow:visible;"/>
			</clipPath>
			<path class="st21" d="M606.9,94.7c-1.1-1.4-1.8-5.2-1.4-7.1c0.5-1.9,1.1-4.6,2.6-5.2s2.4,1.2,3.2-0.8c0.8-1.9,0.9-4.5,0.4-5.8
				c-0.5-1.4-2-4.3-2-4.3s-0.6-3.3-0.5-4c0.1-0.7-0.1-1.6,1.8-3.1s6.4,0.6,6.4,0.6s6.3,15,5.4,20.1c-0.7,4-5.3,12.9-9.3,13.5
				C611.7,98.9,608.2,96.2,606.9,94.7z"/>
		</g>
		<g>
			<defs>
				<circle id="SVGID_20_" cx="615.4" cy="91" r="51.2"/>
			</defs>
			<clipPath id="SVGID_21_">
				<use xlink:href="#SVGID_20_"  style="overflow:visible;"/>
			</clipPath>
			<path class="st22" d="M655.1,120.4c2,1.5,4,7.2,2,9.8s-5,6.5-10,7.3c-5,0.8-7.2-1.6-10.5,1.2c-3.3,2.7-4.3,6.3-3.2,8.1
				s4.9,6,4.9,6s0.8,4.6,0.1,5.5s-0.1,2.3-6.7,4.4s-38.3,0.1-38.3,0.1l8-28.7c0,0,24.5-17.3,34.1-19.1
				C640.5,114,651.1,117.2,655.1,120.4z"/>
		</g>
	</g>
	<path class="st23" d="M615.4,142.2c28.3,0,51.2-22.9,51.2-51.2c0-15.1-6.5-28.6-16.9-38c8.2,9.1,13.2,21.1,13.2,34.3
		c0,28.3-26.7,54.3-54.9,54.3"/>
	<path class="st15" d="M598.3,49.6c0,0-3.5-1.1-7.5,1.7s-2.8,5-1.4,5.7c1.4,0.7,4.6,0.2,5.8,0.6c1.2,0.4,1.9,0.2,3.7-0.6
		s-0.7-2.1,0.9-3.6s3-2.1,1.6-3.1S598.3,49.6,598.3,49.6z"/>
	<path class="st23" d="M591.3,51.8c4-2.8,7.5-1.7,7.5-1.7s1.6-0.2,3.1,0.8c0,0,0,0,0,0c-0.1-0.2-0.3-0.3-0.5-0.5
		c-1.5-1-3.1-0.8-3.1-0.8s-3.5-1.1-7.5,1.7c-3.6,2.5-3,4.6-1.8,5.5C588.3,55.7,588.3,53.9,591.3,51.8z"/>
	<g class="st4">
		<path class="st5" d="M616.5,117.8L616.5,117.8c5.9,0,10.7,4.8,10.7,10.7v0.3c0,1.4-1.1,2.5-2.5,2.5h-16.4c-1.4,0-2.5-1.1-2.5-2.5
			v-0.3C605.8,122.6,610.6,117.8,616.5,117.8z"/>
		<path class="st24" d="M616.5,117.8c-0.3,0-0.7,0-1,0c5.4,0.5,9.7,5.1,9.7,10.6v0.3c0,1.4-1.1,2.5-2.5,2.5h1.9
			c1.4,0,2.5-1.1,2.5-2.5v-0.3C627.2,122.6,622.4,117.8,616.5,117.8z"/>
		<g>
			<g>
				<defs>
					<path id="SVGID_22_" d="M616.5,117.8L616.5,117.8c5.9,0,10.7,4.8,10.7,10.7v0.3c0,1.4-1.1,2.5-2.5,2.5h-16.4
						c-1.4,0-2.5-1.1-2.5-2.5v-0.3C605.8,122.6,610.6,117.8,616.5,117.8z"/>
				</defs>
				<clipPath id="SVGID_23_">
					<use xlink:href="#SVGID_22_"  style="overflow:visible;"/>
				</clipPath>
				<ellipse class="st25" cx="616.5" cy="133" rx="7.2" ry="4.6"/>
			</g>
		</g>
	</g>
</g>
<g class="st1">
	<g class="st4">
		<circle class="st26" cx="175.8" cy="91.5" r="31.5"/>
		<g>
			<circle class="st7" cx="173.4" cy="80" r="3.2"/>
			<path class="st7" d="M171.2,80c0-1.6,1.2-2.9,2.7-3.2c-0.2,0-0.3,0-0.5,0c-1.8,0-3.2,1.4-3.2,3.2c0,1.8,1.4,3.2,3.2,3.2
				c0.2,0,0.3,0,0.5,0C172.4,83,171.2,81.7,171.2,80z"/>
		</g>
		<g>
			<circle class="st7" cx="175.8" cy="70.6" r="1.7"/>
			<path class="st7" d="M174.7,70.6c0-0.8,0.6-1.5,1.4-1.6c-0.1,0-0.2,0-0.3,0c-0.9,0-1.7,0.7-1.7,1.7c0,0.9,0.7,1.7,1.7,1.7
				c0.1,0,0.2,0,0.3,0C175.3,72.1,174.7,71.4,174.7,70.6z"/>
		</g>
		<g>
			<circle class="st7" cx="155.7" cy="93.1" r="5.7"/>
			<path class="st7" d="M151.7,93.1c0-2.9,2.1-5.2,4.9-5.7c-0.3,0-0.6-0.1-0.9-0.1c-3.2,0-5.7,2.6-5.7,5.7s2.6,5.7,5.7,5.7
				c0.3,0,0.6,0,0.9-0.1C153.9,98.4,151.7,96,151.7,93.1z"/>
		</g>
		<g>
			<circle class="st7" cx="193" cy="92.2" r="3.7"/>
			<path class="st7" d="M190.4,92.2c0-1.9,1.4-3.4,3.1-3.6c-0.2,0-0.4-0.1-0.6-0.1c-2,0-3.7,1.7-3.7,3.7s1.7,3.7,3.7,3.7
				c0.2,0,0.4,0,0.6-0.1C191.8,95.6,190.4,94,190.4,92.2z"/>
		</g>
		<g>
			<g>
				<defs>
					<circle id="SVGID_24_" cx="175.8" cy="91.5" r="31.5"/>
				</defs>
				<clipPath id="SVGID_25_">
					<use xlink:href="#SVGID_24_"  style="overflow:visible;"/>
				</clipPath>
				<g class="st27">
					<circle class="st7" cx="157" cy="114.4" r="5.7"/>
					<path class="st7" d="M153,114.4c0-2.9,2.1-5.2,4.9-5.7c-0.3,0-0.6-0.1-0.9-0.1c-3.2,0-5.7,2.6-5.7,5.7s2.6,5.7,5.7,5.7
						c0.3,0,0.6,0,0.9-0.1C155.1,119.6,153,117.2,153,114.4z"/>
				</g>
			</g>
			<g>
				<defs>
					<circle id="SVGID_26_" cx="175.8" cy="91.5" r="31.5"/>
				</defs>
				<clipPath id="SVGID_27_">
					<use xlink:href="#SVGID_26_"  style="overflow:visible;"/>
				</clipPath>
				<g class="st28">
					<circle class="st7" cx="196.7" cy="111.6" r="5.7"/>
					<path class="st7" d="M192.7,111.6c0-2.9,2.1-5.2,4.9-5.7c-0.3,0-0.6-0.1-0.9-0.1c-3.2,0-5.7,2.6-5.7,5.7s2.6,5.7,5.7,5.7
						c0.3,0,0.6,0,0.9-0.1C194.8,116.8,192.7,114.5,192.7,111.6z"/>
				</g>
			</g>
		</g>
	</g>
	<path class="st29" d="M178.9,109.3c0,0-0.8,0.5-3,0.5c-2.4,0-3-0.5-3-0.5"/>
	<g class="st4">
		<g>
			<circle class="st30" cx="168.1" cy="99.5" r="2.1"/>
			<circle class="st30" cx="183.5" cy="99.5" r="2.1"/>
		</g>
	</g>
	<circle class="st14" cx="167.6" cy="99.2" r="0.5"/>
	<circle class="st14" cx="183.1" cy="99.2" r="0.5"/>
	<g class="st4">
		<path class="st24" d="M176.1,123c17.4,0,31.5-14.1,31.5-31.5c0-9.3-4-17.6-10.4-23.4c5.1,5.6,8.2,13,8.1,21.1
			c-0.1,17.4-16.6,33.5-33.8,33.4"/>
	</g>
</g>
<g class="st1">
	<g class="st4">
		<circle class="st31" cx="615.4" cy="269" r="48.5"/>
		<g>
			<g>
				<defs>
					<circle id="SVGID_28_" cx="615.4" cy="269" r="48.5"/>
				</defs>
				<clipPath id="SVGID_29_">
					<use xlink:href="#SVGID_28_"  style="overflow:visible;"/>
				</clipPath>
				<path class="st32" d="M564.6,294.2c0,0,69.5,7.2,102.9,0s-3.6,16.6-3.6,16.6s-42.5-3-97.1,8.7
					C512.3,331.2,564.6,294.2,564.6,294.2z"/>
			</g>
			<g>
				<defs>
					<circle id="SVGID_30_" cx="615.4" cy="269" r="48.5"/>
				</defs>
				<clipPath id="SVGID_31_">
					<use xlink:href="#SVGID_30_"  style="overflow:visible;"/>
				</clipPath>
				<path class="st33" d="M565.7,234.6c0,0,68.7,11.8,102.4,10c33.7-1.8-4.7,11.2-4.7,11.2s-42.1-6.2-97.2-3.4
					C511.1,255.3,565.7,234.6,565.7,234.6z"/>
			</g>
		</g>
		<path class="st34" d="M615.4,317.6c26.8,0,48.5-21.7,48.5-48.5c0-14.3-6.2-27.1-16-36c7.8,8.6,12.6,20,12.5,32.6
			c-0.1,26.9-25.6,51.7-52.1,51.5"/>
		<path class="st35" d="M663.7,273c4.2,1.2,6.6,2.5,6.6,3.9c0,4.5-24.6,8.1-54.9,8.1s-54.9-3.6-54.9-8.1c0-1.4,2.4-2.7,6.5-3.8
			l-0.1-5.5c-18.9,2.2-31.1,5.5-31.1,9.3c0,6.5,35.7,11.8,79.7,11.8s79.7-5.3,79.7-11.8c0-3.8-12.2-7.2-31.1-9.3"/>
	</g>
	<g class="st4">
		<path class="st36" d="M616.3,309.7L616.3,309.7c-7.6,0-13.7-6.1-13.7-13.7v-0.3c0-1.8,1.4-3.2,3.2-3.2h21c1.8,0,3.2,1.4,3.2,3.2
			v0.3C630,303.6,623.9,309.7,616.3,309.7z"/>
		<path class="st24" d="M626.8,292.5h-2.3c1.8,0,3.2,1.4,3.2,3.2v0.3c0,7.2-5.5,13-12.5,13.6c0.4,0,0.8,0.1,1.2,0.1l0,0
			c7.6,0,13.7-6.1,13.7-13.7v-0.3C630,293.9,628.6,292.5,626.8,292.5z"/>
		<g>
			<g>
				<defs>
					<path id="SVGID_32_" d="M616.3,309.7L616.3,309.7c-7.6,0-13.7-6.1-13.7-13.7v-0.3c0-1.8,1.4-3.2,3.2-3.2h21
						c1.8,0,3.2,1.4,3.2,3.2v0.3C630,303.6,623.9,309.7,616.3,309.7z"/>
				</defs>
				<clipPath id="SVGID_33_">
					<use xlink:href="#SVGID_32_"  style="overflow:visible;"/>
				</clipPath>
				<ellipse class="st37" cx="616.3" cy="309.7" rx="8.9" ry="7"/>
			</g>
		</g>
	</g>
	<path class="st38" d="M595.8,274.6c0,0,1.1-1.5,3.9-1.5c3,0,3.9,1.5,3.9,1.5"/>
	<path class="st38" d="M629.1,274.9c0,0,1.1-1.5,3.9-1.5c3,0,3.9,1.5,3.9,1.5"/>
</g>
<g>
	<g>
		<circle class="st39" cx="174.2" cy="463.4" r="48.5"/>
		<g>
			<g>
				<defs>
					<circle id="SVGID_34_" cx="174.2" cy="463.4" r="48.5"/>
				</defs>
				<clipPath id="SVGID_35_">
					<use xlink:href="#SVGID_34_"  style="overflow:visible;"/>
				</clipPath>
				<path class="st40" d="M123.4,437.8c0,0,69.5,4.9,102.9,0s-3.6,11.2-3.6,11.2s-42.5-2-97.1,5.9S123.4,437.8,123.4,437.8z"/>
			</g>
			<g>
				<defs>
					<circle id="SVGID_36_" cx="174.2" cy="463.4" r="48.5"/>
				</defs>
				<clipPath id="SVGID_37_">
					<use xlink:href="#SVGID_36_"  style="overflow:visible;"/>
				</clipPath>
				<path class="st41" d="M119,477.6c0,0,68.3,13.8,102.1,13.3s-5,10.6-5,10.6s-41.9-7.5-97-6.7S119,477.6,119,477.6z"/>
			</g>
			<g>
				<defs>
					<circle id="SVGID_38_" cx="174.2" cy="463.4" r="48.5"/>
				</defs>
				<clipPath id="SVGID_39_">
					<use xlink:href="#SVGID_38_"  style="overflow:visible;"/>
				</clipPath>
				<path class="st42" d="M125.3,403.7c0,0,68.3,16.3,102.4,10s-5.7,21.4-5.7,21.4s-41.9-8.1-97.8,2S125.3,403.7,125.3,403.7z"/>
			</g>
			<g>
				<defs>
					<circle id="SVGID_40_" cx="174.2" cy="463.4" r="48.5"/>
				</defs>
				<clipPath id="SVGID_41_">
					<use xlink:href="#SVGID_40_"  style="overflow:visible;"/>
				</clipPath>
				<path class="st43" d="M216,487.3c0,0-68.3-16.3-102.4-10s5.7-21.4,5.7-21.4s41.9,8.1,97.8-2S216,487.3,216,487.3z"/>
			</g>
			<g>
				<defs>
					<circle id="SVGID_42_" cx="174.2" cy="463.4" r="48.5"/>
				</defs>
				<clipPath id="SVGID_43_">
					<use xlink:href="#SVGID_42_"  style="overflow:visible;"/>
				</clipPath>
				<path class="st44" d="M213.4,534.8c0,0-66.5-22.3-101.1-19.1s7.6-20.8,7.6-20.8s41,11.8,97.5,6.7
					C273.9,496.4,213.4,534.8,213.4,534.8z"/>
			</g>
		</g>
		<path class="st24" d="M174.1,511.9c26.7,0,48.4-21.7,48.4-48.4c0-14.2-6.2-27-15.9-35.9c7.8,8.6,12.5,20,12.5,32.4
			c0,26.7-25.2,51.3-51.9,51.3"/>
	</g>
	<path class="st45" d="M161,468.7c0,0-1.1,1.5-3.9,1.5c-3,0-3.9-1.5-3.9-1.5"/>
	<path class="st46" d="M184,490.5c0,0-2.7,2-9.9,2c-7.7,0-9.9-2-9.9-2"/>
	<path class="st45" d="M194.3,468.9c0,0-1.1,1.5-3.9,1.5c-3,0-3.9-1.5-3.9-1.5"/>
</g>
<g class="st1">
	<g class="st4">
		<ellipse class="st47" cx="173.5" cy="279.1" rx="51.2" ry="48.9"/>
		<path class="st24" d="M173.5,328c28.3,0,51.2-21.9,51.2-48.9c0-14.4-6.5-27.3-16.9-36.3c8.2,8.7,13.2,20.2,13.2,32.8
			c0,27-26.6,51.9-54.9,51.9"/>
		<g class="st48">
			<text transform="matrix(1 0 0 1 189.9585 230.6291)" class="st35 st49 st50">Z</text>
		</g>
		<g class="st51">
			<text transform="matrix(1 0 0 1 194.3545 225.1809)" class="st35 st49 st52">Z</text>
		</g>
		<g class="st53">
			<text transform="matrix(1 0 0 1 199.6489 221.9563)" class="st35 st49 st54">Z</text>
		</g>
		<path class="st45" d="M152.3,284.5c0,0,1.1-0.6,3.9-0.6c3,0,3.9,0.6,3.9,0.6"/>
		<path class="st46" d="M180.5,304.9c0,0-1.9,1.1-7,1.1c-5.5,0-7-1.1-7-1.1"/>
		<path class="st45" d="M187,284.5c0,0,1.1-0.6,3.9-0.6c3,0,3.9,0.6,3.9,0.6"/>
		<g class="st55">
			<circle class="st7" cx="158" cy="245.8" r="3.8"/>
			<path class="st7" d="M155.3,245.8c0-1.9,1.4-3.4,3.2-3.7c-0.2,0-0.4-0.1-0.6-0.1c-2.1,0-3.8,1.7-3.8,3.8s1.7,3.8,3.8,3.8
				c0.2,0,0.4,0,0.6-0.1C156.7,249.2,155.3,247.7,155.3,245.8z"/>
		</g>
		<g class="st55">
			<circle class="st7" cx="214.5" cy="273.1" r="3.6"/>
			<path class="st7" d="M212,273.1c0-1.8,1.3-3.3,3.1-3.6c-0.2,0-0.4-0.1-0.6-0.1c-2,0-3.6,1.6-3.6,3.6s1.6,3.6,3.6,3.6
				c0.2,0,0.4,0,0.6-0.1C213.3,276.4,212,274.9,212,273.1z"/>
		</g>
		<g class="st55">
			<circle class="st7" cx="150.5" cy="303.3" r="3.6"/>
			<path class="st7" d="M148,303.3c0-1.8,1.3-3.3,3.1-3.6c-0.2,0-0.4-0.1-0.6-0.1c-2,0-3.6,1.6-3.6,3.6s1.6,3.6,3.6,3.6
				c0.2,0,0.4,0,0.6-0.1C149.4,306.6,148,305.1,148,303.3z"/>
		</g>
		<path class="st7" d="M184,247.1l-5.9,5.4l-0.7,6.5l5,7.4l7.4-2.1l2.8,4.5c0,0,4.2-4,4.8-4.7c0.5-0.8,1.8-8.7,1.8-9
			s-1.5-6.8-1.8-6.8s-7.7,0.9-8,1s-3.6,0.5-3.6,0s-0.3-2.2-0.3-2.2H184z"/>
		<g>
			<path class="st7" d="M191.3,249.3c0.2,0,4-0.5,6.3-0.8c0-0.1-0.1-0.2-0.1-0.2c-0.2,0-7.7,0.9-8,1c-0.1,0-0.8,0.1-1.5,0.2
				C188.7,249.6,191,249.3,191.3,249.3z"/>
			<path class="st7" d="M179.3,259l0.7-6.5l5.5-5.1c0-0.2-0.1-0.3-0.1-0.3H184l-5.9,5.4l-0.7,6.5l5,7.4l1.6-0.4L179.3,259z"/>
			<path class="st7" d="M191.7,264.4l-1.6,0.4l2.5,4c0,0,0.5-0.5,1.2-1.1L191.7,264.4z"/>
		</g>
		<path class="st7" d="M186.8,309.6l-4.1,1.6l-0.5,1.9l3.5,2.2l5.3-0.6l2,1.3c0,0,3-1.2,3.4-1.4s1.3-2.6,1.3-2.7s-1.1-2-1.3-2
			s-5.4,0.3-5.7,0.3s-2.5,0.2-2.5,0s-0.2-0.7-0.2-0.7L186.8,309.6L186.8,309.6z"/>
		<g>
			<path class="st7" d="M192,310.2c0.2,0,2.8-0.1,4.4-0.2c0,0-0.1-0.1-0.1-0.1c-0.2,0-5.4,0.3-5.7,0.3c-0.1,0-0.6,0-1.1,0.1
				C190.1,310.3,191.8,310.2,192,310.2z"/>
			<path class="st7" d="M183.5,313.1l0.5-1.9l3.9-1.5c0-0.1,0-0.1,0-0.1h-1l-4.1,1.6l-0.5,1.9l3.5,2.2l1.1-0.1L183.5,313.1z"/>
			<path class="st7" d="M192.3,314.7l-1.1,0.1l1.8,1.2c0,0,0.4-0.1,0.8-0.3L192.3,314.7z"/>
		</g>
	</g>
	<path class="st3" d="M128.7,268.6l-3.9,5l-0.5,6.1l3.4,6.9l5-1.9l1.9,4.1c0,0,2.8-3.7,3.2-4.4c0.4-0.7,1.2-8,1.2-8.4
		c0-0.3-1-6.3-1.2-6.3c-0.2,0-5.1,0.8-5.4,0.9s-2.4,0.5-2.4,0s-0.2-2-0.2-2H128.7z"/>
	<g class="st4">
		<path class="st7" d="M133.6,270.6c0.2,0,2.7-0.5,4.2-0.7c0-0.1-0.1-0.2-0.1-0.2c-0.2,0-5.1,0.8-5.4,0.9c-0.1,0-0.5,0.1-1,0.2
			C131.8,271,133.4,270.7,133.6,270.6z"/>
		<path class="st7" d="M125.5,279.7l0.5-6.1l3.7-4.7c0-0.2,0-0.3,0-0.3h-1l-3.9,5l-0.5,6.1l3.4,6.9l1.1-0.4L125.5,279.7z"/>
		<path class="st7" d="M133.9,284.6l-1.1,0.4l1.7,3.7c0,0,0.3-0.4,0.8-1L133.9,284.6z"/>
	</g>
</g>
<g class="st1">
	<g class="st4">
		<circle class="st56" cx="396" cy="91.5" r="48.5"/>
		<g>
			<g>
				<defs>
					<circle id="SVGID_44_" cx="396" cy="91.5" r="48.5"/>
				</defs>
				<clipPath id="SVGID_45_">
					<use xlink:href="#SVGID_44_"  style="overflow:visible;"/>
				</clipPath>
				<path class="st57" d="M343.2,70c0,0,39.5-15.4,62.5-29.7c23-14.4,21.2,2.9,21.2,2.9s-70.9,41.8-87,39.2
					C323.8,79.8,343.2,70,343.2,70z"/>
			</g>
			<g>
				<defs>
					<circle id="SVGID_46_" cx="396" cy="91.5" r="48.5"/>
				</defs>
				<clipPath id="SVGID_47_">
					<use xlink:href="#SVGID_46_"  style="overflow:visible;"/>
				</clipPath>
				<path class="st58" d="M354.2,113.1c0,0,22.1,21.2,88.9-26.6c15.9-11.4,12.4,1.1,12.4,1.1s-80,52.3-103.6,31.2
					C341.7,109.6,354.2,113.1,354.2,113.1z"/>
			</g>
			<g>
				<defs>
					<circle id="SVGID_48_" cx="396" cy="91.5" r="48.5"/>
				</defs>
				<clipPath id="SVGID_49_">
					<use xlink:href="#SVGID_48_"  style="overflow:visible;"/>
				</clipPath>
				<path class="st59" d="M433.5,146c0,0-13.5-27.5-92.6-5.3c-18.9,5.3-11.3-5.3-11.3-5.3s93.1-21.8,108,6.1
					C444.1,153.6,433.5,146,433.5,146z"/>
			</g>
			<g>
				<defs>
					<circle id="SVGID_50_" cx="396" cy="91.5" r="48.5"/>
				</defs>
				<clipPath id="SVGID_51_">
					<use xlink:href="#SVGID_50_"  style="overflow:visible;"/>
				</clipPath>
				<path class="st60" d="M344.2,87c0,0,66.5-7.5,95.1-24.1s6.6,5.1,6.6,5.1s-41.2,11.7-102,24.7S344.2,87,344.2,87z"/>
			</g>
		</g>
		<g>
			<g>
				<g>
					<circle class="st5" cx="380.2" cy="98.8" r="3.1"/>
					<circle class="st5" cx="411.7" cy="98.8" r="3.1"/>
				</g>
			</g>
			<path class="st34" d="M396,140c26.8,0,48.5-21.7,48.5-48.5c0-14.3-6.2-27.1-16-36c7.8,8.6,12.6,20,12.5,32.5
				c-0.1,26.9-25.6,51.7-52.1,51.5"/>
		</g>
		<circle class="st61" cx="381.7" cy="100.2" r="0.6"/>
		<circle class="st61" cx="410.2" cy="100.2" r="0.6"/>
		<path class="st62" d="M417.6,97.1l-4.4-4.4c-0.3-0.3-0.3-0.8,0-1.1l0.5-0.5c0.3-0.3,0.8-0.3,1.1,0l4.4,4.4c0.3,0.3,0.3,0.8,0,1.1
			l-0.5,0.5C418.4,97.4,417.9,97.4,417.6,97.1z"/>
		<path class="st62" d="M378.7,92.7l-4.4,4.4c-0.3,0.3-0.8,0.3-1.1,0l-0.5-0.5c-0.3-0.3-0.3-0.8,0-1.1l4.4-4.4
			c0.3-0.3,0.8-0.3,1.1,0l0.5,0.5C379,91.9,379,92.4,378.7,92.7z"/>
	</g>
	<path class="st63" d="M394.4,117.2c1.4-2,3.2-3.8,5.4-5c0.9-0.5,1.9-1,2.9-0.8s2,1.1,1.8,2.1c-0.3,1.4-2.4,1.9-2.6,3.4
		c-0.2,1.5,1.6,2.4,1.8,3.9c0.2,1.3-1.2,2.5-2.5,2.6c-1.3,0.2-2.7-0.3-4-0.5s-2.9-0.1-3.8,1"/>
</g>
<g class="st1">
	<g class="st4">
		<circle class="st64" cx="396" cy="269" r="64.6"/>
		<g>
			<g>
				<defs>
					<circle id="SVGID_52_" cx="396" cy="269" r="64.6"/>
				</defs>
				<clipPath id="SVGID_53_">
					<use xlink:href="#SVGID_52_"  style="overflow:visible;"/>
				</clipPath>
				<g class="st65">
					<g>
						<g>
							<g>
								<g>
									<path class="st66" d="M542.6,213.5c0.3,0.3,0.6-2.3,0.7-2.8C542.7,211.2,542.5,214.2,542.6,213.5z"/>
									<polygon class="st66" points="536.5,218.5 536.8,217.5 535.6,219.9 									"/>
									<path class="st66" d="M531.7,217.7c-0.3,4.5,1.8-0.4,2.4,1.3l0,1l1-3.5C534,216.9,532.2,219,531.7,217.7z"/>
									<path class="st66" d="M530.7,207.8c-0.1,1.7-0.8,1.4,0.5,0.6c0-0.2,0-0.3,0-0.5C531,207.9,530.9,207.9,530.7,207.8z"/>
									<path class="st66" d="M531.1,207.9C531.7,207.9,531,206.4,531.1,207.9L531.1,207.9z"/>
									<path class="st66" d="M528.6,208.6l0.9-1.4c0-1-0.5-1.4-0.2-2.1C528.5,205.8,528.5,206.8,528.6,208.6z"/>
									<path class="st66" d="M527.5,211.7l0.4-0.6C528,210.6,527.9,210.5,527.5,211.7z"/>
									<path class="st66" d="M528.9,209.8l-0.9,1.3c0,0.7-0.2,2.2,0.4-0.4C528.1,211.9,528.4,210.7,528.9,209.8z"/>
									<path class="st66" d="M529.2,210.6c0.2,1,0.6,1.7-0.3,3.1C530.3,213.3,530.6,210.1,529.2,210.6z"/>
									<path class="st66" d="M530.7,222.2l0.3,1.4l0.7-1.4C531.4,222.9,530.9,220.8,530.7,222.2z"/>
									<path class="st66" d="M524.8,205.6c-0.2,0.9-0.2,2.5-0.3,3.7l0.7-1C525,207.7,524.6,207,524.8,205.6z"/>
									<path class="st66" d="M524.5,209.4l-1,1.5C524.2,211.2,524.4,210.4,524.5,209.4z"/>
									<polygon class="st66" points="526.6,216.5 528.4,213.3 526.4,216.5 									"/>
									<polygon class="st66" points="522,205.1 522.7,203 521.5,206.2 									"/>
									<path class="st66" d="M520,205.2c0.6-1.7,0-3.1,0.5-4.2c-0.6,0.2-1.2,1.7-1.8,3C519.3,203.4,519.7,203.6,520,205.2z"/>
									<path class="st66" d="M517.8,206c0.3-0.4,0.6-1.1,1-1.9C518.5,204.5,518.1,205,517.8,206z"/>
									<path class="st66" d="M522.3,210.2c0-0.6,0.1-2.1-0.2-2.8l-0.1,2.7C522.1,210.2,522.2,210.2,522.3,210.2z"/>
									<path class="st66" d="M522.1,210.2L522.1,210.2c-0.3-0.2-0.5-0.3-0.6-0.3C521.5,209.9,521.7,210,522.1,210.2z"/>
									<path class="st66" d="M522.4,210.2C522.4,210.2,522.4,210.2,522.4,210.2C522.3,210.5,522.3,210.6,522.4,210.2z"/>
									<path class="st66" d="M525.1,213.9c-0.7,1.4-1.8,2.9-1.3,5.2C524.4,217.3,524.1,216,525.1,213.9z"/>
									<path class="st66" d="M522.3,213.6l0.7,0.7c0.1-0.7,0.1-1.7,0.4-2.4L522.3,213.6z"/>
									<polygon class="st66" points="521.8,214.4 522.3,213.6 522,213.3 									"/>
									<path class="st66" d="M518.8,208.7c-0.5,1.1-0.9,1.1-1.3,1.3c0.4,0.6,0.8,0.9,1.2,1C518.9,210.1,519.3,208.7,518.8,208.7z"
										/>
									<path class="st66" d="M520.3,209.7c0,0.1-0.1,0.1-0.1,0.1C520.2,210,520.3,210.1,520.3,209.7z"/>
									<path class="st66" d="M513.3,209.3c0,0.2,0,0.3,0,0.5C513.3,209.7,513.4,209.5,513.3,209.3L513.3,209.3z"/>
									<path class="st66" d="M518.7,211.4c0.3,0.6,0.6-0.1,0.9-0.8c-0.3,0.2-0.6,0.4-0.9,0.3C518.6,211.3,518.5,211.5,518.7,211.4
										z"/>
									<path class="st66" d="M516.4,207.1c0.1,0.6,0.2,1.1,0.4,1.5C516.8,207.7,516.6,206.4,516.4,207.1z"/>
									<path class="st66" d="M520.2,209.1c0,0,0-0.1,0.1-0.1C520.3,208.4,520.2,208.6,520.2,209.1z"/>
									<path class="st66" d="M520.2,209.1c-0.2,0.4-0.5,1-0.7,1.5c0.2-0.2,0.5-0.4,0.7-0.8C520.2,209.6,520.2,209.3,520.2,209.1z"
										/>
									<path class="st66" d="M509.7,226.1c0.4-2.4,1.6-4.6,2-1.9c1-1.7,1.7-9.8,1.6-14.4c-0.2,1.1-0.3,2-1.3,3.4
										c0.1,1.4,1.3,3.4,0.3,5.5c-1.2,1.1-0.7-1-1-2.3c0,3.1-1.9,4.3-2.3,8.8l1.1-1.5C510,224.4,509.5,225.4,509.7,226.1z"/>
									<path class="st66" d="M514.7,210.3l0.4-0.3c-0.3-0.5-0.4-1.5-0.6-3.5c-0.7,1.1-0.9,2-1.1,2.8l1.5,0.6L514.7,210.3z"/>
									<path class="st66" d="M516.5,210.2c-0.6,2.6-1.6,3.6-1.5,6.6c1,0,1-2.1,1.7-3.2c-1.6,0.4,0.6-1.4-0.2-3.1
										c0.4-0.4,0.7-0.5,0.9-0.6c-0.2-0.4-0.4-0.8-0.6-1.3c0,0.1,0,0.1,0,0.2l0,0c0,0,0,0,0,0c0,0.3,0,0.5,0,0.3c0,0,0,0,0,0.1
										C516.7,209.6,516.6,209.9,516.5,210.2c-0.4-0.6,0-0.7,0.2-1c0-0.1,0-0.3,0.1-0.4l0,0l-1.7,1.2
										C515.4,210.4,515.8,210.4,516.5,210.2z"/>
									<path class="st66" d="M522.1,224.7c0-0.2,0-0.4,0-0.6C522,224.4,521.9,224.6,522.1,224.7z"/>
									<path class="st66" d="M521.7,223c0.2-0.4,0.4-1.4,0.7-1.1c0.2,0.8-0.2,1.3-0.3,2.1c0.3-0.7,1-1.8,0.6-3.2l-0.2,0.3
										c-0.5-1-0.7-4.4-0.6-4.8C521.8,218.8,521.7,220.6,521.7,223z"/>
									<path class="st66" d="M519,217.3l-1.4,1.1l0.3,2.4l0.2-1.4C518.7,220,518.8,218.3,519,217.3z"/>
									<polygon class="st66" points="513.3,208 513.9,205.2 512.6,209.1 									"/>
									<polygon class="st66" points="511.7,208.1 512.1,205.7 511.4,207.1 									"/>
									<path class="st66" d="M416.9,229.8l-0.4,0.7C416.7,230.3,416.8,230.1,416.9,229.8z"/>
									<path class="st66" d="M419.6,230.1l0.1-1.2C419.5,229.6,419.5,230.1,419.6,230.1z"/>
									<path class="st66" d="M471.2,203.5c-0.3-2.3-0.6-6-0.8-3.2l-0.1,2.7C470.7,202.6,471,202.9,471.2,203.5z"/>
									<path class="st66" d="M442.2,217.2c0,0.3,0.1,0.6,0.1,0.8c0.2-0.9,0.4-1.8,0.6-2.6C442.6,216,442.4,216.6,442.2,217.2z"/>
									<path class="st66" d="M441,228.3l-0.6-1.8C440.5,227.2,440.7,227.7,441,228.3z"/>
									<path class="st66" d="M402.5,232.1l-0.5,2.7C402.6,234.8,402.4,233.4,402.5,232.1z"/>
									<path class="st66" d="M494.7,206.9c-0.3-1.1-0.7-1.6-1-1.8C494.1,206.7,494.3,209.1,494.7,206.9z"/>
									<path class="st66" d="M419.4,201.2c-0.3,0.5-0.4,1-0.4,1.6C419.3,202.4,419.4,201.9,419.4,201.2z"/>
									<path class="st66" d="M492.4,204.9c0,0.3,0.1,0.4,0.2,0.7c0.4-0.4,0.8-0.7,1.2-0.5C493.4,203.9,493,203.1,492.4,204.9z"/>
									<path class="st66" d="M350.4,229.4c0-0.1-0.1-0.2-0.1-0.3C350.2,229.4,350.3,229.5,350.4,229.4z"/>
									<path class="st66" d="M334.3,202.5c0.1-0.2,0.4-0.2,0.6-0.2C334.8,202.1,334.6,202.1,334.3,202.5z"/>
									<path class="st66" d="M505.2,206C505.6,205.9,505.3,205.7,505.2,206L505.2,206z"/>
									<path class="st66" d="M505.5,216.9c-0.1,0.3-0.2,0.7-0.3,1.3C505.3,217.5,505.4,217.1,505.5,216.9z"/>
									<path class="st66" d="M486.9,221.2C486.9,221.2,486.9,221.2,486.9,221.2C486.9,221.8,486.9,221.7,486.9,221.2z"/>
									<path class="st66" d="M505.6,207.3c-0.1-0.3-0.2-0.6-0.3-0.9C505.3,206.7,505.4,206.9,505.6,207.3z"/>
									<path class="st66" d="M505.7,206c0.1,0.1,0.2,0.2,0.3,0.3C506,205.9,506,205.6,505.7,206z"/>
									<path class="st66" d="M504.7,206.1c0.2,0,0.4,0.1,0.5,0.4c0-0.2-0.1-0.3,0-0.4C505.1,206,504.9,206.1,504.7,206.1z"/>
									<path class="st66" d="M378.4,222.1c0-0.1,0-0.1-0.1-0.3C378,222.9,378.1,222.7,378.4,222.1z"/>
									<path class="st66" d="M459.5,230.6c0,0,0-0.1,0.1-0.1c0,0,0-0.1,0-0.1L459.5,230.6z"/>
									<path class="st66" d="M458.1,232.5c0.8-3.3,1.1-2.9,1.4-2.1l0.3-7.8L458.1,232.5z"/>
									<path class="st66" d="M410.6,230.3l0.8,2.5c-1.2,3.9-1.9,2.5-1.2,6c0.5-8.5,3.4-0.7,3.9-9.2l0.5,1.8
										c-0.2-0.1-0.2,0.4-0.4,0.3c0.9,4.1,1.1-6.1,2.5-4.8c0.5,0.7,0.8,1.9,0.4,2.9l1.2-2c0.3,0.2,0.2,1.6-0.2,1.5l1.7-0.6l0,0.2
										c0.3-1.3,1-3.3,1.3-4.2c0.4,1.2-0.3,0.9-0.2,1.9l1-2c0.3,2.2-0.6,4.3-1.3,3.9c0.4,8.5,0.9-2.1,2.5,3l-0.9,1
										c0.3,4.8,1.1,3.1,1.9,6.2c-0.1-1.6-1.6-7.7-0.4-9.7c0.2,0.7,0.6,1,1.3-0.7c-0.2,3,0.4,2.3,1.1,2.2l-0.3,4
										c0.8-1.1,0.8-3.1,1.4-4.9c0.8,0.4,0.8,3.5,0.8,6.1c1.2,0.7-0.6-5,1-5.7c1,1.6,1.8,0,3.3-2.3c0.7,1.4-0.3,2.4-0.1,3.6
										l0.9-3.1c0.2,0.1,0,1.1,0,1.5c0.6-1.2,0.3-4,1.3-5c0.5-4.4,1.4,6.5,2.8,1.6c0.2,1.1-0.3,2.4-0.3,4c1.7-3.2,1.4-2.3,3-6.6
										l0.9,2.7c-0.6-3,0.7-6.5,1.8-9.3c-0.2-1.5-0.3-2.7-0.4-3.4l1.6-2c0.1,0.7-0.1,2-0.5,3.7c0.1-0.3,0.2-0.6,0.3-0.9
										c0.4,1.5,0,3.8-0.6,6c-0.1-0.8-0.2-1.7-0.3-2.5c-0.5,2.4-1,5-1.1,7.4c0.1-0.5,0.3-0.8,0.5-1c-0.1,0.6-0.2,1.2-0.2,1.6
										c0,0.4,0.2-0.4,0.5-1.4l0,4.5l0.2-1.8l1.6,2.9c1.6-4.4,3.3-10.9,5.5-12.5c-0.8,3.2-0.5,5.3-0.9,9.1
										c-0.2-4.1-1.7,1.6-2.7,0.7c0.5,0.5,0.3,2.3,0.1,2.9l2.2-3.6c-0.3,3.1,0.2,2.4,0.6,3.7c0.1-6.3,1.7-4,2.7-5.9
										c-0.1,2.1-0.5,4.2-1.4,3.6c0.6,4.8,1.9-7.2,2.6-3.1c-0.2,0-0.3-0.3-0.5,0.8c0.7-1.8,1.9-0.2,1.4,1.6l-0.2,0
										c1.5,0.9,4.6,0.4,5.3-4.8c0,0.7-0.8,6.4-1,7.4l4.3-17.5c-0.7,4.5-0.7,15.4-2.2,17.9c0.3,0.7,0.7,1.5,1.6-0.1
										c-0.2-0.7,0-6.6,0.4-7c0.5,5.1,0.4,2.8,1.1,7.2c-0.3-1,0.8-8.1,1.4-7.8c-0.2,1.1-0.6,7-0.9,7.7l2.1-6.8
										c-0.5,1.2-0.6,5.9-0.5,7.9c0-1.4,1.2,0.3,1.7-0.4l-0.5-1.7c1.5,1.2,2.6-9.7,4.2-9.1c-0.3,1.4-1.4,8.8-0.6,9.8
										c0.7-3.5,3.4-17,5.2-19.6l0.1,2.1l1.4-2.2c-1.3,5.3-4.4,16.4-5.9,20.7c0.4,1.7-0.1,2.4,0.9,2.3c0.1,1.9-0.8,2.9-1.1,2.9
										l2,1.4c0.3-4.2,2.1-4,2.4-7.5l-2.8,4.1c0.3-4.2,2.6-11.7,4-10.8c0.2,1.7-1.1,7.4-1.2,8.8c0.3-1.4,1.7-2.6,1.8-1.5l-0.9,2.2
										c0.7,1.7,2-5.4,2.6-1.3c0.3,0.3,0.4,5.5,0.8,3c0-4.8,1.5-19.5,2.3-23.1c0.1,0.3,1.4,4.8,1.5,7.1c0.2,3.8-1.9,8.8-1.7,12
										c0.1-1.1,0.6-2.5,0.8-2.9c0.3,1-0.6,3.5,0.3,3.1c0.6-4.2,1.6,0.5,0.8-3.5c0.9-1.1,0.7,1,1.7,0.9c0-2.8,1.9-9.2,2.8-10.3
										c-0.2,1.1-0.2,2.5-0.1,3.1c1.6,0.6,2.2,2.6,3.7,2.8c0,1,0.6,2.4,0.1,4.1c0.3-0.7,0.7-2.1,1.2-2.2c0.4,3.8-1.1,0.4-1,4.9
										c0.4-2.4,1.6-3.2,2.5-4.7c0.3-3.8-1.4-0.9-2.3,0.5c0.6-5.2,2.5-10.5,4.3-12.8c1.4-1.1,0.1,3.4,0.4,2.7
										c2.2,1.2,3.2-8.9,4.7-4.9c0.3,3.4-0.8,6.6-1,9c-1.2,1.1-1.3-2.3-2-2.3l0.6,1.7c-0.5,1.1-1.3,1.8-1.5,0.8
										c0.3,3.1,3.9,1.1,5.3,4.1c0.5-1.1,1.2-2.1,1.1-3.5l-0.6,0.4c-0.2-2.8,1.6-3.6,1-4.9c1-1.8,2.3-4.6,3.2-3l-0.3,3.8
										c0.1-1.1-0.4-2.4-0.9-1.2c0.7-1.6,1,5.4,2.1,0.5l-0.4-2.7c1-1.8,2.6-5.7,3.4-4.4c0.1-3.8-0.3,0.4-0.4-4.1
										c-0.2,5.5-2.5-0.6-2.3,5.3c0-5.2-0.9-2.3-1.3-6.8c-0.1,1.3,0,2.4-0.7,1.7c-0.1,0.4-0.2,0.8-0.3,1.1c0,0,0-0.1,0-0.1
										c0,0.1,0,0.1,0,0.2c-0.1,0.2-0.1,0.2,0,0.1c0.1,0.6,0.2,1.3,0.2,2c-0.8,2.8-2.1,2.5-2.7,4c-0.4-0.7,0.4-1.4,0.3-2.8
										l-0.9,2.1c0.3-2.8-0.7-4.8,0.7-6.3l-1-0.3c-0.4-1.6-1.2-2.4-1.8-1.3c-0.4-0.7-1.6,2.9-0.9,0.8l-1.8,1.5l0.1-0.7
										c-1.6-0.6-3.8,4.2-5-1.1c-0.6,0.6-1.3,1.4-2.1,0.5l0.1-2.4c-0.8,0.7-1.8-2.7-2.4-0.2c0-6.6-3.2-1.8-4.3-3.1l-0.4,3.1
										c-0.8-0.3-1.7,0.5-2.9,1.7l-0.2,2.8c-1.1,2.2-2.1-2.2-3.5-2.1c0.2-1.1,0.5-0.7,0.7-0.1c-1-6.5-4,4.2-5.1-0.5
										c-0.5,1-0.7,0.6-0.9-0.1c0,0,0.1-0.1,0.1-0.1c0,0-0.1,0-0.2,0c-0.1-0.5-0.2-1.1-0.4-1.5c0.1,0.7,0.2,1.3,0.3,1.5
										c-0.3,0-0.8,0.3-1.3,1l0.1-3c0,0-0.1,0-0.1,0.1c-0.3-1.1-0.5,1.4-0.5,3.7c-0.3,0.5-0.5,1-0.8,1.7c0.1-4.9-1.3,1.5-1.3-3.7
										c-0.5,2.5-2.4,1.7-3.1,6.9c0.1-0.7,0-1,0.2-1c-0.4-0.7-0.9-1.3-1.4,0.1l0.2-3.8l-1.5,5c-0.4-2.4-0.6-3.7,0.3-6.6
										c-2,4.4-1.4,1.6-3.1,5.9l0.3-2.5c-0.5,0.1-1.5,3.3-1.6,1.2c-0.6-4.8-5.1-1.1-7.5-5.7c-0.1,7.3-1-3.4-1.6,2.3
										c0-1.7-0.3-2.7,0.2-4.2c-1.5,1.6-1.9-2.9-3.2,1.8c0-1.7,0.5-2.5,0.4-3.5c-0.1,0.4-0.6,1.5-0.6,0.4c-0.1-1,0.3-1.4,0.6-2.2
										c-1.4,0.2-2,5.5-2.5,10.4c-0.5-2.4-0.9-2.1-1.7,1.1c-0.1-1.6-0.4-3.4,0.5-3.9c-0.5-0.3-2.8-2.6-3.2,1.4
										c-0.1-1-0.7-0.3-0.8,0.1c-1.1-0.3-1.2-0.7-2.3-0.4l0.3,0.7c-0.8,4.8-1,1-1.9,1.5l0.1-0.5c-1.8-3.6-1,1.6-2.7-2.5l-0.1,3
										c-0.6,6.4-1.5-3.9-2.8-1.5l0.3,1.7c-0.8,2.2-1.2-8.8-1.8-9.7c-0.1-0.6,0.3-0.9,0.5-1.3c-1.4-3.9-0.4,3.9-1.7,4.7
										c-0.1-2.1,0.6-5.3-0.2-5.8c-0.3-1.7-2.8,6.7-3.7,2.6c0.2,1.6,0.3,3.3-0.3,4.5c-0.9,0.5-2.1-6.3-3.1-1.2
										c-0.1-0.4-0.1-0.9-0.1-1.3c-0.7,1.3-2.3,2.1-2.8,4.9c-0.1-10.3-4.4,4.8-3.9-4.7l-2.1,0.4l0.1-1c-1.3-0.7-1.9,1.6-2.4,3.8
										c-0.3-0.7,0-1.5,0-2c-1.8-2-2.1-1.6-3.8,3.1l-0.1-3.1c-0.5,1.8-2.6-4.9-4.6-1.4c0-0.3,0.1-0.9,0.3-1.4
										c-2.2,3.5-4.9-8.7-5.9,2.5l-1.5,2.7c1.8,0.9-0.4,4.9,0.3,6.8c-0.7,0.6-1.7-3.4-0.9-4l0.1,0.6c0.5-5.9-2.2-2.1-2.1-6.1
										c-3.6,0.2-7-3.1-10.4-3.4l0.3,4.6l-1.2-0.3c-0.3-1.1-0.4-3.6,0.5-3.4c-0.4-2.6-1.4,2.2-1.5,3.1c-1.6-1.9,0.7-5.3,0.2-5.4
										l-0.7,0.3l0.1,0.5c-0.6,1.9-0.6,3.8-1.6,3.6c-0.6-0.9-0.3-2.8-0.6-3c0-0.3-0.1-0.5-0.4-0.1l-1.5-0.4l0.6,3.6
										c-0.7,1.8-1.4-0.2-0.7,3.9c-1-6.3-5.5-2.3-6.1-4.2c-0.9,2.6-1.8,2.6-2.9,2.3c0.3,0.7,0.5,4.8-0.5,4.3
										c0.3-8.4-1.8-3.6-2.6-9.6c0.7,4-2.7,1-1.6,6.7c-0.8-0.7-0.1-3.1-0.7-5.1c-1.9,3.2-4.2-2.1-6.6-0.9c0,1.1,0.4,2.8-0.1,4.4
										l-1.3-5.5c-0.5,0.5-0.3,6.3-1.2,2.5c0.1,0.9,0.3,2.3,0,2.7c-2.4-2.6-4.7-1.5-7.1-0.9c-2.4,0.6-4.7,0.6-7.2-4.4
										c0.7,2.1,0.3,2.3-0.2,2.4c0.3,0.5,0.1,2.7,0.2,4.2l-2.1-4.1c-0.2,4.1-2.1,0.3-2.2,4.3l0.6-0.7c-0.7,4.7,1.5,10.3,1.6,16.3
										c0.7-5.3,2.7,7.8,3.9,0.1c0.4,1.2-0.2,1.9,0,3.3c0.3-2.6,0.7-3.1,1.6-2l-0.1,0.6c2.4-0.7,3.4,1.8,6.1,3.4l-0.3-2.9
										c0.6,0.4,0.7,1.3,1,2c0.6-4.5-1.6-0.2-1.1-5.2c0.9,6,4.1,0,4.7,6.8c0.9,0-0.3-3.4,0.6-3.4l0.3,1.8l0.2-2.4
										c0.6,0.4,0.9,2.7,1,4.3c-0.1-0.2-0.4,0.4-0.5,0.6c0.8,2.2,2.1-0.8,2.4-0.1l-0.9-1.1c2.4-1.8,5.3,0.6,7.6-3.2l-0.2-1.4
										c1.8-2.6,1.4,1.5,3.4,0.3l-0.1,0.3c0.4-1.4,0.9-2.1,1.4-1.9c-0.5,1.6,0.9,3.2,0.3,5c1.9-2.8,0.9-2.2,2.2-7.4l0.3,2.3
										c0.4-2.1,0.5-3.2,1.4-3.8c-0.8,2,0.6,3.5-0.3,6.1c2,5,3-5.1,4,2.3c1-6.4-1.8-3.6-1.2-4.9c-0.4-2.1,0.8-4.8,1.4-4.1
										c0.7,0.1,1.1,8.2,2.7,8.1c-0.2,0-0.2,0.5-0.3,0.4c0.6,1.6,1.2-2.2,2,0.5c0.5-3.9,1,0.2,1.1-4.7l-1.5,1.1
										c0.9-1.3,1.7-7.1,3.1-4.2c-0.1,1-0.6,2.3-0.9,3c0.4,1.5,0.8-1,1.2,0.5c-0.2,4.9-1.8,1.1-2.8,4.8c0.4,2.1,1.8-3.6,1.2,1.8
										c0.7-6.8,1.6,0.9,2.8-4.3l-0.1,3c0.2-0.5,0.6-1.9,0.9-1.8l-0.6,3.8c0.9-3.3,1.7,2.9,2.6,1.1c-1.8,0.1-0.3-3.6-1.1-5.7
										c2.3-3.9,1.2,7.8,3.7,6.4c-0.3,0.4-1.2-1.8-0.7-3.2c0.5,0.6,1.1,1.8,1.3,3.3c1.7-0.6-0.2-3,0.5-4.9
										c0.5,3.6,0.8-1.4,1.6-2.6l-0.1,3c1.8,2,0.6-6.3,2.3-3.9l-0.8,4.2l0.9-1.1L391,230c1-2.5,1.3-1.9,2.2-0.9
										c-0.2-2.1,0.3-5.5,1.1-5.5c0.5,1.8-0.4,2.9,0.8,2.4c-0.3,1.9-0.7,4.2-1.1,1.4c-0.1,1-0.3,1.9-0.4,2.8
										c0.6,2.1,1.5,0.5,1.9,0.5c-0.2-0.1-0.4-0.3-0.4-0.7l1.8-4.1c0.2,1.1,0,2-0.2,2.9c0.4-0.3,0.6-1.7,1.2-1.9
										c-0.2,2.4-0.3,5-1,6.1l1.7-2.7c0.1,1.1,0.7,2.9,0.5,3.8c0.8,1.5,2.4-4.7,3.5-2.7c0.1-0.5,0.2-0.9,0.5-1.3
										c1.1,0.6,2,3.6,3.4,0.3l0.6,4.4c1.1-1-0.8-5.6,1-7.1c1.3-1.3,0.3,3.8,0.7,5c0.7-2.2,2-6.6,2.9-3
										C411.2,230.7,411,230,410.6,230.3z M423.6,229c-0.3,0.6-0.9,2.5-1,0.7C423.1,226.3,423.2,228,423.6,229z M443.7,223.1
										c-0.3,1-0.5,0.5-0.8-0.7C443.2,222.2,443.4,222.3,443.7,223.1z M501.1,207.9c0,0.1,0,0.1,0,0.1
										C500.6,206.8,500.7,207.3,501.1,207.9z M502.1,209.4c0.2-0.4,0.2-0.8,0.2-1.2c-0.2,0.7-0.5,0.8-0.7,0.5
										C501.5,209.4,501.6,210,502.1,209.4z M374.9,201.8l0.2,0.8C374.6,203.4,374.7,202.7,374.9,201.8z"/>
									<path class="st66" d="M441.1,227c0-0.5,0-1.1,0-1.6C441,225.9,441,226.5,441.1,227z"/>
									<path class="st66" d="M402.5,231.6C402.5,231.6,402.5,231.6,402.5,231.6c-0.1,0.1-0.1,0.3-0.1,0.5L402.5,231.6z"/>
									<path class="st66" d="M480.9,232.5c-0.2-0.5-0.3-1-0.3-1.6C480.6,231.6,480.6,232.3,480.9,232.5z"/>
									<path class="st66" d="M509,205.2l-0.9,0.7c0.4-0.1,0.4,0.6,0.5,1.1C508.8,206.2,508.8,205.2,509,205.2z"/>
									<path class="st66" d="M512.9,224.5c0.2-0.4,0.2,0,0.4-0.4l0.2-1.4C513,222.8,512.5,223.8,512.9,224.5z"/>
									<path class="st66" d="M508.3,215.2c-0.3,2.5,0.3,1.7,0.9,1.3c0,0-0.1,0-0.1,0C509.8,213,509,214.1,508.3,215.2z"/>
									<path class="st66" d="M509.4,216.4c0.2-0.1,0.4-0.1,0.5,0C510.1,215,509.7,216.1,509.4,216.4z"/>
									<path class="st66" d="M503.8,207.9c0.2,0.7,0.6-3.2,0.6-2.1C505.1,202.6,502.2,209.4,503.8,207.9z"/>
									<polygon class="st66" points="507.6,223.5 507.9,220.4 507.2,222.8 									"/>
									<path class="st66" d="M503.8,220.6l0.7,1c0.1-0.5,0.2-0.8,0.4-1C504.4,220.4,503.9,219.7,503.8,220.6z"/>
									<path class="st66" d="M504.9,220.6c0.3,0.1,0.5,0.1,0.7-0.4C505.5,220.2,505.2,220.2,504.9,220.6z"/>
									<polygon class="st66" points="506.4,224.3 506.2,223.6 505.6,223.3 									"/>
									<path class="st66" d="M494.9,218.9l-1,0.8c-0.2,1.1-0.1,1.7,0.3,1.4C494.5,220.3,494.9,219.9,494.9,218.9z"/>
									<path class="st66" d="M496.6,227.7c-0.2-0.7-0.1-1.4-0.1-2.4l-0.5,3.8L496.6,227.7z"/>
									<path class="st66" d="M493.8,228.3c-0.2,1.1-1.7,2.9-0.5,2.8C493.5,230,494.5,229.3,493.8,228.3z"/>
									<polygon class="st66" points="480.7,221.8 481,221.8 481.6,215.5 									"/>
									<path class="st66" d="M467.1,235.6c0.9,1.6,0.6-3.9,1.4-1.9c0.4-1.5-0.6-1.6-0.2-2.9C467.5,232.4,467.2,231.4,467.1,235.6z
										"/>
									<path class="st66" d="M468.3,230.9c0.1-0.2,0.3-0.5,0.4-0.9C468.5,230.3,468.4,230.6,468.3,230.9z"/>
									<polygon class="st66" points="331.5,199.2 330.8,197.9 331.3,200 									"/>
									<path class="st66" d="M330.4,203.9l-0.3-4l-0.3,3.7C329.9,203.4,330.2,203,330.4,203.9z"/>
									<path class="st66" d="M425,237.3l0.1-1c0-1.1-0.2-1.1-0.5-1.3L425,237.3z"/>
									<polygon class="st66" points="415.9,233.8 416,233.8 415.9,230.2 									"/>
									<path class="st66" d="M407.9,238.1c0.3,0.2,0.7-0.6,1-0.5C408.2,238.2,408,233.5,407.9,238.1z"/>
								</g>
							</g>
						</g>
					</g>
				</g>
			</g>
			<g>
				<defs>
					<circle id="SVGID_54_" cx="396" cy="269" r="64.6"/>
				</defs>
				<clipPath id="SVGID_55_">
					<use xlink:href="#SVGID_54_"  style="overflow:visible;"/>
				</clipPath>
				<g class="st67">
					<g>
						<g>
							<g>
								<g>
									<path class="st66" d="M536.3,319.6c0.3,0.3,0.6-2.3,0.7-2.8C536.4,317.4,536.2,320.3,536.3,319.6z"/>
									<polygon class="st66" points="530.2,324.7 530.4,323.6 529.3,326.1 									"/>
									<path class="st66" d="M525.4,323.8c-0.3,4.5,1.8-0.4,2.4,1.3l0,1l1-3.5C527.7,323,525.9,325.2,525.4,323.8z"/>
									<path class="st66" d="M524.3,313.9c-0.1,1.7-0.8,1.4,0.5,0.6c0-0.2,0-0.3,0-0.5C524.7,314.1,524.6,314.1,524.3,313.9z"/>
									<path class="st66" d="M524.8,314.1C525.3,314,524.7,312.6,524.8,314.1L524.8,314.1z"/>
									<path class="st66" d="M522.3,314.7l0.9-1.4c0-1-0.5-1.4-0.2-2.1C522.2,311.9,522.2,313,522.3,314.7z"/>
									<path class="st66" d="M521.2,317.8l0.4-0.6C521.6,316.8,521.6,316.6,521.2,317.8z"/>
									<path class="st66" d="M522.6,316l-0.9,1.3c0,0.7-0.2,2.2,0.4-0.4C521.8,318.1,522.1,316.8,522.6,316z"/>
									<path class="st66" d="M522.9,316.7c0.2,1,0.6,1.7-0.3,3.1C524,319.4,524.3,316.3,522.9,316.7z"/>
									<path class="st66" d="M524.4,328.3l0.3,1.4l0.7-1.4C525,329,524.6,327,524.4,328.3z"/>
									<path class="st66" d="M518.5,311.8c-0.2,0.9-0.2,2.5-0.3,3.7l0.7-1C518.7,313.8,518.3,313.2,518.5,311.8z"/>
									<path class="st66" d="M518.2,315.5l-1,1.5C517.8,317.3,518.1,316.6,518.2,315.5z"/>
									<polygon class="st66" points="520.3,322.7 522,319.5 520.1,322.7 									"/>
									<polygon class="st66" points="515.7,311.2 516.4,309.1 515.2,312.3 									"/>
									<path class="st66" d="M513.7,311.3c0.6-1.7,0-3.1,0.5-4.2c-0.6,0.2-1.2,1.7-1.8,3C512.9,309.5,513.4,309.8,513.7,311.3z"/>
									<path class="st66" d="M511.5,312.1c0.3-0.4,0.6-1.1,1-1.9C512.1,310.6,511.8,311.2,511.5,312.1z"/>
									<path class="st66" d="M516,316.4c0-0.6,0.1-2.1-0.2-2.8l-0.1,2.7C515.8,316.3,515.9,316.3,516,316.4z"/>
									<path class="st66" d="M515.7,316.4L515.7,316.4c-0.3-0.2-0.5-0.3-0.6-0.3C515.2,316.1,515.4,316.2,515.7,316.4z"/>
									<path class="st66" d="M516.1,316.4C516.1,316.4,516,316.4,516.1,316.4C516,316.6,516,316.7,516.1,316.4z"/>
									<path class="st66" d="M518.7,320c-0.7,1.4-1.8,2.9-1.3,5.2C518.1,323.5,517.7,322.1,518.7,320z"/>
									<path class="st66" d="M516,319.7l0.7,0.7c0.1-0.7,0.1-1.7,0.4-2.4L516,319.7z"/>
									<polygon class="st66" points="515.4,320.5 516,319.7 515.7,319.5 									"/>
									<path class="st66" d="M512.5,314.8c-0.5,1.1-0.9,1.1-1.3,1.3c0.4,0.6,0.8,0.9,1.2,1C512.5,316.3,512.9,314.8,512.5,314.8z"
										/>
									<path class="st66" d="M514,315.8c0,0.1-0.1,0.1-0.1,0.1C513.9,316.2,514,316.2,514,315.8z"/>
									<path class="st66" d="M507,315.5c0,0.2,0,0.3,0,0.5C507,315.8,507,315.7,507,315.5L507,315.5z"/>
									<path class="st66" d="M512.4,317.6c0.3,0.6,0.6-0.1,0.9-0.8c-0.3,0.2-0.6,0.4-0.9,0.3C512.3,317.4,512.2,317.7,512.4,317.6
										z"/>
									<path class="st66" d="M510.1,313.2c0.1,0.6,0.2,1.1,0.4,1.5C510.5,313.9,510.3,312.5,510.1,313.2z"/>
									<path class="st66" d="M513.9,315.2c0,0,0-0.1,0.1-0.1C514,314.5,513.9,314.8,513.9,315.2z"/>
									<path class="st66" d="M513.9,315.2c-0.2,0.4-0.5,1-0.7,1.5c0.2-0.2,0.5-0.4,0.7-0.8C513.9,315.7,513.9,315.5,513.9,315.2z"
										/>
									<path class="st66" d="M503.4,332.2c0.4-2.4,1.6-4.6,2-1.9c1-1.7,1.7-9.8,1.6-14.4c-0.2,1.1-0.3,2-1.3,3.4
										c0.1,1.4,1.3,3.4,0.3,5.5c-1.2,1.1-0.7-1-1-2.3c0,3.1-1.9,4.3-2.3,8.8l1.1-1.5C503.7,330.5,503.2,331.6,503.4,332.2z"/>
									<path class="st66" d="M508.4,316.4l0.4-0.3c-0.3-0.5-0.4-1.5-0.6-3.5c-0.7,1.1-0.9,2-1.1,2.8l1.5,0.6L508.4,316.4z"/>
									<path class="st66" d="M510.2,316.3c-0.6,2.6-1.6,3.6-1.5,6.6c1,0,1-2.1,1.7-3.2c-1.6,0.4,0.6-1.4-0.2-3.1
										c0.4-0.4,0.6-0.5,0.9-0.6c-0.2-0.4-0.4-0.8-0.6-1.3c0,0.1,0,0.1,0,0.2l0,0c0,0,0,0,0,0c0,0.3,0,0.5,0,0.3c0,0,0,0,0,0
										C510.4,315.7,510.3,316,510.2,316.3c-0.4-0.6,0-0.7,0.2-1c0-0.1,0-0.3,0.1-0.4l0,0l-1.7,1.2
										C509.1,316.6,509.5,316.5,510.2,316.3z"/>
									<path class="st66" d="M515.8,330.8c0-0.2,0-0.4,0-0.6C515.7,330.5,515.6,330.7,515.8,330.8z"/>
									<path class="st66" d="M515.4,329.1c0.2-0.4,0.4-1.4,0.7-1.1c0.2,0.8-0.2,1.3-0.3,2.1c0.3-0.7,1-1.8,0.6-3.2l-0.2,0.3
										c-0.5-1-0.7-4.4-0.6-4.8C515.5,325,515.4,326.7,515.4,329.1z"/>
									<path class="st66" d="M512.7,323.4l-1.4,1.1l0.3,2.4l0.2-1.4C512.4,326.2,512.5,324.5,512.7,323.4z"/>
									<polygon class="st66" points="507,314.1 507.6,311.3 506.3,315.2 									"/>
									<polygon class="st66" points="505.3,314.2 505.7,311.8 505.1,313.2 									"/>
									<path class="st66" d="M410.6,336l-0.4,0.7C410.4,336.5,410.5,336.2,410.6,336z"/>
									<path class="st66" d="M413.2,336.3l0.1-1.2C413.2,335.7,413.1,336.2,413.2,336.3z"/>
									<path class="st66" d="M464.8,309.6c-0.3-2.3-0.6-6-0.8-3.2l-0.1,2.7C464.4,308.7,464.7,309,464.8,309.6z"/>
									<path class="st66" d="M435.9,323.3c0,0.3,0.1,0.6,0.1,0.8c0.2-0.9,0.4-1.8,0.6-2.6C436.3,322.1,436.1,322.7,435.9,323.3z"
										/>
									<path class="st66" d="M434.7,334.5l-0.6-1.8C434.2,333.3,434.4,333.9,434.7,334.5z"/>
									<path class="st66" d="M396.1,338.2l-0.5,2.7C396.3,341,396,339.6,396.1,338.2z"/>
									<path class="st66" d="M488.4,313c-0.3-1.1-0.7-1.6-1-1.8C487.8,312.9,487.9,315.2,488.4,313z"/>
									<path class="st66" d="M413.1,307.4c-0.3,0.5-0.4,1-0.4,1.6C413,308.5,413.1,308,413.1,307.4z"/>
									<path class="st66" d="M486,311.1c0,0.3,0.1,0.4,0.2,0.7c0.4-0.4,0.8-0.7,1.2-0.5C487.1,310,486.7,309.3,486,311.1z"/>
									<path class="st66" d="M344,335.5c0-0.1-0.1-0.2-0.1-0.3C343.9,335.6,344,335.6,344,335.5z"/>
									<path class="st66" d="M327.9,308.6c0.1-0.2,0.4-0.2,0.6-0.2C328.4,308.2,328.3,308.3,327.9,308.6z"/>
									<path class="st66" d="M498.9,312.2C499.2,312,499,311.9,498.9,312.2L498.9,312.2z"/>
									<path class="st66" d="M499.1,323c-0.1,0.3-0.2,0.7-0.3,1.3C498.9,323.6,499,323.2,499.1,323z"/>
									<path class="st66" d="M480.6,327.4C480.6,327.4,480.6,327.4,480.6,327.4C480.6,327.9,480.6,327.8,480.6,327.4z"/>
									<path class="st66" d="M499.2,313.4c-0.1-0.3-0.2-0.6-0.3-0.9C498.9,312.8,499,313.1,499.2,313.4z"/>
									<path class="st66" d="M499.3,312.2c0.1,0.1,0.2,0.2,0.3,0.3C499.7,312,499.7,311.7,499.3,312.2z"/>
									<path class="st66" d="M498.4,312.2c0.2,0,0.4,0.1,0.5,0.4c0-0.2-0.1-0.3,0-0.4C498.8,312.2,498.6,312.2,498.4,312.2z"/>
									<path class="st66" d="M372.1,328.2c0-0.1,0-0.1-0.1-0.3C371.6,329.1,371.8,328.9,372.1,328.2z"/>
									<path class="st66" d="M453.2,336.7c0,0,0-0.1,0.1-0.1c0,0,0-0.1,0-0.1L453.2,336.7z"/>
									<path class="st66" d="M451.8,338.6c0.8-3.3,1.1-2.9,1.4-2.1l0.3-7.8L451.8,338.6z"/>
									<path class="st66" d="M404.3,336.5l0.8,2.5c-1.2,3.9-1.9,2.5-1.2,6c0.5-8.5,3.4-0.7,3.9-9.2l0.5,1.8
										c-0.2-0.1-0.2,0.4-0.4,0.3c0.9,4.1,1.1-6.1,2.5-4.8c0.5,0.7,0.8,1.9,0.4,2.9l1.2-2c0.3,0.2,0.2,1.6-0.2,1.5l1.7-0.6l0,0.2
										c0.3-1.3,1-3.3,1.3-4.2c0.4,1.2-0.3,0.9-0.2,1.9l1-2c0.3,2.2-0.6,4.3-1.3,3.9c0.4,8.5,0.9-2.1,2.5,3l-0.9,1
										c0.3,4.8,1.1,3.1,1.9,6.2c-0.1-1.6-1.6-7.7-0.4-9.7c0.2,0.7,0.6,1,1.3-0.7c-0.2,3,0.4,2.3,1.1,2.2l-0.3,4
										c0.8-1.1,0.8-3.1,1.4-4.9c0.8,0.4,0.8,3.5,0.8,6.1c1.2,0.7-0.6-5,1-5.7c1,1.6,1.8,0,3.3-2.3c0.7,1.4-0.3,2.4-0.1,3.6
										l0.9-3.1c0.2,0.1,0,1.1,0,1.5c0.6-1.2,0.3-4,1.3-5c0.5-4.4,1.4,6.5,2.8,1.6c0.2,1.1-0.3,2.4-0.3,4c1.7-3.2,1.4-2.3,3-6.6
										l0.9,2.7c-0.6-3,0.7-6.5,1.8-9.3c-0.2-1.5-0.3-2.7-0.4-3.4l1.6-2c0.1,0.7-0.1,2-0.5,3.7c0.1-0.3,0.2-0.6,0.3-0.9
										c0.4,1.5,0,3.8-0.6,6c-0.1-0.8-0.2-1.7-0.3-2.5c-0.5,2.4-1,5-1.1,7.4c0.1-0.5,0.3-0.8,0.5-1c-0.1,0.6-0.2,1.2-0.2,1.6
										c0,0.4,0.2-0.4,0.5-1.4l0,4.5l0.2-1.8l1.6,2.9c1.6-4.4,3.3-10.9,5.5-12.5c-0.8,3.2-0.5,5.3-0.9,9.1
										c-0.2-4.1-1.7,1.6-2.7,0.7c0.5,0.5,0.3,2.3,0.1,2.9l2.2-3.6c-0.3,3.1,0.2,2.4,0.6,3.7c0.1-6.3,1.7-4,2.7-5.9
										c-0.1,2.1-0.5,4.2-1.4,3.6c0.6,4.8,1.9-7.2,2.6-3.1c-0.2,0-0.3-0.3-0.5,0.8c0.7-1.8,1.9-0.2,1.4,1.6l-0.2,0
										c1.5,0.9,4.6,0.4,5.3-4.8c0,0.7-0.8,6.4-1,7.4l4.3-17.5c-0.7,4.5-0.7,15.4-2.2,17.9c0.3,0.7,0.7,1.5,1.6-0.1
										c-0.2-0.7,0-6.6,0.4-7c0.5,5.1,0.4,2.8,1.1,7.2c-0.3-1,0.8-8.1,1.4-7.8c-0.2,1.1-0.6,7-0.9,7.7l2.1-6.8
										c-0.5,1.2-0.6,5.9-0.5,7.9c0-1.4,1.2,0.3,1.7-0.4l-0.5-1.7c1.5,1.2,2.6-9.7,4.2-9.1c-0.3,1.4-1.4,8.8-0.6,9.8
										c0.7-3.5,3.4-17,5.2-19.6l0.1,2.1l1.4-2.2c-1.3,5.3-4.4,16.4-5.9,20.7c0.4,1.7-0.1,2.4,0.9,2.3c0.1,1.9-0.8,2.9-1.1,2.9
										l2,1.4c0.3-4.2,2.1-4,2.4-7.5l-2.8,4.1c0.3-4.2,2.6-11.7,4-10.8c0.2,1.7-1.1,7.4-1.2,8.8c0.3-1.4,1.7-2.6,1.8-1.5l-0.9,2.2
										c0.7,1.7,2-5.4,2.6-1.3c0.3,0.3,0.4,5.5,0.8,3c0-4.8,1.5-19.5,2.3-23.1c0.1,0.3,1.4,4.8,1.5,7.1c0.2,3.8-1.9,8.8-1.7,12
										c0.1-1.1,0.6-2.5,0.8-2.9c0.3,1-0.6,3.5,0.3,3.1c0.6-4.2,1.6,0.5,0.8-3.5c0.9-1.1,0.7,1,1.7,0.9c0-2.8,1.9-9.2,2.8-10.3
										c-0.2,1.1-0.2,2.5-0.1,3.1c1.6,0.6,2.2,2.6,3.7,2.8c0,1,0.6,2.4,0.1,4.1c0.3-0.7,0.7-2.1,1.2-2.2c0.4,3.8-1.1,0.4-1,4.9
										c0.4-2.4,1.6-3.2,2.5-4.7c0.3-3.8-1.4-0.9-2.3,0.5c0.6-5.2,2.5-10.5,4.3-12.8c1.4-1.1,0.1,3.4,0.4,2.7
										c2.2,1.2,3.2-8.9,4.7-4.9c0.3,3.4-0.8,6.6-1,9c-1.2,1.1-1.3-2.3-2-2.3l0.6,1.7c-0.5,1.1-1.3,1.8-1.5,0.8
										c0.3,3.1,3.9,1,5.3,4.1c0.5-1.1,1.2-2.1,1.1-3.5l-0.6,0.4c-0.2-2.8,1.6-3.6,1-4.9c1-1.8,2.3-4.6,3.2-3l-0.3,3.8
										c0.1-1.1-0.4-2.4-0.9-1.2c0.7-1.6,1,5.4,2.1,0.5l-0.4-2.7c1-1.8,2.6-5.7,3.4-4.4c0.1-3.8-0.3,0.4-0.4-4.1
										c-0.2,5.5-2.5-0.6-2.3,5.3c0-5.2-0.9-2.3-1.3-6.8c-0.1,1.3,0,2.4-0.7,1.7c-0.1,0.4-0.2,0.8-0.3,1.1c0,0,0-0.1,0-0.1
										c0,0.1,0,0.1,0,0.2c-0.1,0.2-0.1,0.2,0,0.1c0.1,0.6,0.2,1.3,0.2,2c-0.8,2.8-2.1,2.5-2.7,4c-0.4-0.7,0.4-1.4,0.3-2.8
										l-0.9,2.1c0.3-2.8-0.7-4.8,0.7-6.3l-1-0.3c-0.4-1.6-1.2-2.4-1.8-1.3c-0.4-0.7-1.6,2.9-0.9,0.8l-1.8,1.5l0.1-0.7
										c-1.6-0.5-3.8,4.2-5-1c-0.6,0.6-1.3,1.4-2.1,0.5l0.1-2.4c-0.8,0.7-1.8-2.7-2.4-0.2c0-6.6-3.2-1.8-4.3-3.1l-0.4,3.1
										c-0.8-0.3-1.7,0.5-2.9,1.7l-0.2,2.8c-1.1,2.2-2.1-2.2-3.5-2.1c0.2-1.1,0.5-0.7,0.7-0.1c-1-6.5-4,4.2-5.1-0.5
										c-0.5,1-0.7,0.6-0.9-0.1c0,0,0.1-0.1,0.1-0.1c0,0-0.1,0-0.2,0c-0.1-0.5-0.2-1.1-0.4-1.5c0.1,0.7,0.2,1.3,0.3,1.5
										c-0.3,0-0.8,0.3-1.3,1l0.1-3c0,0-0.1,0-0.1,0.1c-0.3-1.1-0.5,1.4-0.5,3.7c-0.3,0.5-0.5,1-0.8,1.7c0.1-4.9-1.3,1.5-1.3-3.7
										c-0.5,2.5-2.4,1.7-3.1,6.9c0.1-0.7,0-1,0.2-1c-0.4-0.7-0.9-1.3-1.4,0.1l0.2-3.8l-1.5,5c-0.4-2.4-0.6-3.7,0.3-6.6
										c-2,4.4-1.4,1.6-3.1,5.9l0.3-2.5c-0.5,0.1-1.5,3.3-1.6,1.2c-0.6-4.8-5.1-1.1-7.5-5.7c-0.1,7.3-1-3.4-1.6,2.3
										c0-1.7-0.3-2.7,0.2-4.2c-1.5,1.6-1.9-2.9-3.2,1.8c0-1.7,0.5-2.5,0.4-3.5c-0.1,0.4-0.6,1.5-0.6,0.4c-0.1-1,0.3-1.4,0.6-2.2
										c-1.4,0.2-2,5.5-2.5,10.4c-0.5-2.4-0.9-2.1-1.7,1.1c-0.1-1.6-0.4-3.4,0.5-3.9c-0.5-0.3-2.8-2.6-3.2,1.4
										c-0.1-1-0.7-0.3-0.8,0.1c-1.1-0.3-1.2-0.7-2.3-0.4l0.3,0.7c-0.8,4.8-1,1-1.9,1.5l0.1-0.5c-1.8-3.6-1,1.6-2.7-2.5l-0.1,3
										c-0.6,6.4-1.5-3.9-2.8-1.5l0.3,1.7c-0.8,2.2-1.2-8.8-1.8-9.7c-0.1-0.6,0.3-0.9,0.5-1.3c-1.4-3.9-0.4,3.9-1.7,4.7
										c-0.1-2.1,0.6-5.3-0.2-5.8c-0.3-1.7-2.8,6.7-3.7,2.6c0.2,1.6,0.3,3.3-0.3,4.5c-0.9,0.5-2.1-6.3-3.1-1.2
										c-0.1-0.4-0.1-0.9-0.1-1.3c-0.7,1.3-2.3,2.1-2.8,4.9c-0.1-10.3-4.4,4.8-3.9-4.7l-2.1,0.4l0.1-1c-1.3-0.7-1.9,1.6-2.4,3.8
										c-0.3-0.7,0-1.5,0-2c-1.8-2-2.1-1.6-3.8,3.1l-0.1-3.1c-0.5,1.8-2.6-4.9-4.6-1.4c0-0.3,0.1-0.9,0.3-1.4
										c-2.2,3.5-4.9-8.7-5.9,2.5l-1.5,2.7c1.8,0.9-0.4,4.9,0.3,6.8c-0.7,0.6-1.7-3.4-0.9-4l0.1,0.6c0.5-5.9-2.2-2.1-2.1-6.1
										c-3.6,0.2-7-3.1-10.4-3.4l0.3,4.6l-1.2-0.3c-0.3-1.1-0.4-3.6,0.5-3.4c-0.4-2.6-1.4,2.2-1.5,3.1c-1.6-1.9,0.7-5.3,0.2-5.4
										l-0.7,0.3l0.1,0.5c-0.6,1.9-0.6,3.8-1.6,3.6c-0.6-0.9-0.3-2.8-0.6-3c0-0.3-0.1-0.5-0.4-0.1l-1.5-0.4l0.6,3.6
										c-0.7,1.8-1.4-0.2-0.7,3.9c-1-6.3-5.5-2.3-6.1-4.2c-0.9,2.6-1.8,2.6-2.9,2.3c0.3,0.7,0.5,4.8-0.5,4.3
										c0.3-8.4-1.8-3.6-2.6-9.6c0.7,4-2.7,1-1.6,6.7c-0.8-0.7-0.1-3.1-0.7-5.1c-1.9,3.2-4.2-2.1-6.6-0.9c0,1.1,0.4,2.8-0.1,4.4
										l-1.3-5.5c-0.5,0.5-0.3,6.3-1.2,2.5c0.1,0.9,0.3,2.3,0,2.7c-2.4-2.6-4.7-1.5-7.1-0.9c-2.4,0.6-4.7,0.6-7.2-4.4
										c0.7,2.1,0.3,2.3-0.2,2.4c0.3,0.5,0.1,2.7,0.2,4.2l-2.1-4.1c-0.2,4.1-2.1,0.3-2.2,4.3l0.6-0.7c-0.7,4.7,1.5,10.3,1.6,16.3
										c0.7-5.3,2.7,7.8,3.9,0.1c0.4,1.2-0.2,1.9,0,3.3c0.3-2.6,0.7-3.1,1.6-2l-0.1,0.6c2.4-0.7,3.4,1.8,6.1,3.4l-0.3-2.9
										c0.6,0.4,0.7,1.3,1,2c0.6-4.5-1.6-0.2-1.1-5.2c0.9,6,4.1,0,4.7,6.8c0.9,0-0.3-3.4,0.6-3.4l0.3,1.8l0.2-2.4
										c0.6,0.4,0.9,2.7,1,4.3c-0.1-0.2-0.4,0.4-0.5,0.6c0.8,2.2,2.1-0.8,2.4-0.1l-0.9-1.1c2.4-1.8,5.3,0.6,7.6-3.2l-0.2-1.4
										c1.8-2.6,1.4,1.5,3.4,0.3l-0.1,0.3c0.4-1.4,0.9-2.1,1.4-1.9c-0.5,1.6,0.9,3.2,0.3,5c1.9-2.8,0.9-2.2,2.2-7.4l0.3,2.3
										c0.4-2.1,0.5-3.2,1.4-3.8c-0.8,2,0.6,3.5-0.3,6.1c2,5,3-5.1,4,2.3c1-6.4-1.8-3.6-1.2-4.9c-0.4-2.1,0.8-4.8,1.4-4.1
										c0.7,0.1,1.1,8.2,2.7,8.1c-0.2,0-0.2,0.5-0.3,0.4c0.6,1.6,1.2-2.2,2,0.5c0.5-3.9,1,0.2,1.1-4.7l-1.5,1.1
										c0.9-1.3,1.7-7.1,3.1-4.2c-0.1,1-0.6,2.3-0.9,3c0.4,1.5,0.8-1,1.2,0.5c-0.2,4.9-1.8,1.1-2.8,4.8c0.4,2.1,1.8-3.6,1.2,1.8
										c0.7-6.8,1.6,0.9,2.8-4.3l-0.1,3c0.2-0.5,0.6-1.9,0.9-1.8l-0.6,3.8c0.9-3.3,1.7,2.9,2.6,1.1c-1.8,0.1-0.3-3.6-1.1-5.7
										c2.3-3.9,1.2,7.8,3.7,6.4c-0.3,0.4-1.2-1.8-0.7-3.2c0.5,0.6,1.1,1.8,1.3,3.3c1.7-0.6-0.2-3,0.5-4.9
										c0.5,3.6,0.8-1.5,1.6-2.6l-0.1,3c1.8,2,0.6-6.3,2.3-3.9l-0.8,4.2l0.9-1.1l-0.3,3.4c1-2.5,1.3-1.9,2.2-0.9
										c-0.2-2.1,0.3-5.5,1.1-5.5c0.5,1.8-0.4,2.9,0.8,2.4c-0.3,1.9-0.7,4.2-1.1,1.5c-0.1,1-0.3,1.9-0.4,2.8
										c0.6,2.1,1.5,0.5,1.9,0.5c-0.2-0.1-0.4-0.3-0.4-0.7l1.8-4.1c0.2,1.1,0,2-0.2,2.9c0.4-0.3,0.6-1.7,1.2-1.9
										c-0.2,2.4-0.3,5-1,6.1l1.7-2.7c0.1,1.1,0.7,2.9,0.5,3.8c0.8,1.5,2.4-4.7,3.5-2.7c0.1-0.5,0.2-0.9,0.5-1.3
										c1.1,0.6,2,3.6,3.4,0.3l0.6,4.4c1.1-1-0.8-5.6,1-7.1c1.3-1.3,0.3,3.8,0.7,5c0.7-2.2,2-6.6,2.9-3
										C404.9,336.8,404.6,336.2,404.3,336.5z M417.2,335.2c-0.3,0.6-0.9,2.5-1,0.7C416.7,332.5,416.9,334.1,417.2,335.2z
										 M437.3,329.2c-0.3,1-0.5,0.5-0.8-0.7C436.8,328.3,437.1,328.4,437.3,329.2z M494.7,314.1c0,0.1,0,0.1,0,0.1
										C494.3,313,494.4,313.5,494.7,314.1z M495.7,315.5c0.2-0.4,0.2-0.8,0.2-1.2c-0.2,0.7-0.5,0.8-0.7,0.5
										C495.2,315.6,495.3,316.1,495.7,315.5z M368.5,307.9l0.2,0.8C368.2,309.6,368.4,308.8,368.5,307.9z"/>
									<path class="st66" d="M434.8,333.2c0-0.5,0-1.1,0-1.6C434.7,332,434.6,332.6,434.8,333.2z"/>
									<path class="st66" d="M396.2,337.7C396.2,337.7,396.2,337.7,396.2,337.7c-0.1,0.1-0.1,0.3-0.1,0.5L396.2,337.7z"/>
									<path class="st66" d="M474.6,338.6c-0.2-0.5-0.3-1-0.3-1.6C474.2,337.8,474.3,338.4,474.6,338.6z"/>
									<path class="st66" d="M502.7,311.3l-0.9,0.7c0.4-0.1,0.4,0.6,0.5,1.1C502.4,312.4,502.4,311.3,502.7,311.3z"/>
									<path class="st66" d="M506.6,330.6c0.2-0.4,0.2,0,0.4-0.4l0.2-1.4C506.7,328.9,506.2,330,506.6,330.6z"/>
									<path class="st66" d="M502,321.3c-0.3,2.5,0.3,1.7,0.9,1.3c0,0-0.1,0-0.1,0C503.5,319.1,502.7,320.2,502,321.3z"/>
									<path class="st66" d="M503,322.6c0.2-0.1,0.4-0.1,0.5,0C503.8,321.2,503.4,322.3,503,322.6z"/>
									<path class="st66" d="M497.5,314.1c0.2,0.7,0.6-3.2,0.6-2.1C498.8,308.8,495.9,315.5,497.5,314.1z"/>
									<polygon class="st66" points="501.3,329.6 501.5,326.5 500.9,329 									"/>
									<path class="st66" d="M497.5,326.8l0.7,1c0.1-0.5,0.2-0.8,0.4-1C498.1,326.6,497.6,325.9,497.5,326.8z"/>
									<path class="st66" d="M498.6,326.7c0.3,0.1,0.5,0.1,0.7-0.4C499.2,326.3,498.8,326.4,498.6,326.7z"/>
									<polygon class="st66" points="500,330.4 499.9,329.7 499.3,329.4 									"/>
									<path class="st66" d="M488.6,325l-1,0.8c-0.2,1.1-0.1,1.7,0.3,1.4C488.2,326.4,488.6,326.1,488.6,325z"/>
									<path class="st66" d="M490.3,333.9c-0.2-0.7-0.1-1.4-0.1-2.4l-0.5,3.8L490.3,333.9z"/>
									<path class="st66" d="M487.5,334.4c-0.2,1.1-1.7,2.9-0.5,2.8C487.2,336.2,488.2,335.4,487.5,334.4z"/>
									<polygon class="st66" points="474.4,327.9 474.6,327.9 475.3,321.6 									"/>
									<path class="st66" d="M460.8,341.8c0.9,1.6,0.6-3.9,1.4-1.9c0.4-1.5-0.6-1.6-0.2-2.9C461.2,338.5,460.9,337.6,460.8,341.8z
										"/>
									<path class="st66" d="M462,337c0.1-0.2,0.3-0.5,0.4-0.9C462.2,336.4,462,336.7,462,337z"/>
									<polygon class="st66" points="325.2,305.3 324.5,304 325,306.1 									"/>
									<path class="st66" d="M324,310.1l-0.3-4l-0.3,3.7C323.6,309.5,323.9,309.2,324,310.1z"/>
									<path class="st66" d="M418.7,343.4l0.1-1c0-1.1-0.2-1.1-0.5-1.3L418.7,343.4z"/>
									<polygon class="st66" points="409.6,339.9 409.7,340 409.6,336.3 									"/>
									<path class="st66" d="M401.6,344.2c0.3,0.2,0.7-0.6,1-0.5C401.9,344.4,401.7,339.6,401.6,344.2z"/>
								</g>
							</g>
						</g>
					</g>
				</g>
			</g>
			<g>
				<defs>
					<circle id="SVGID_56_" cx="396" cy="269" r="64.6"/>
				</defs>
				<clipPath id="SVGID_57_">
					<use xlink:href="#SVGID_56_"  style="overflow:visible;"/>
				</clipPath>
				<path class="st68" d="M306.7,333.5c69.5-5.1,139.8-2.9,210.5,6.6"/>
			</g>
			<g>
				<defs>
					<circle id="SVGID_58_" cx="396" cy="269" r="64.6"/>
				</defs>
				<clipPath id="SVGID_59_">
					<use xlink:href="#SVGID_58_"  style="overflow:visible;"/>
				</clipPath>
				<path class="st69" d="M313.5,286.8l31.3,3.7c33,3.9,66.6,3.9,99.6,0l31.3-3.7"/>
			</g>
			<g>
				<defs>
					<circle id="SVGID_60_" cx="396" cy="269" r="64.6"/>
				</defs>
				<clipPath id="SVGID_61_">
					<use xlink:href="#SVGID_60_"  style="overflow:visible;"/>
				</clipPath>
				<path class="st70" d="M475.5,249l-31.3-3.7c-33-3.9-66.6-3.9-99.6,0l-31.3,3.7"/>
			</g>
			<g>
				<defs>
					<circle id="SVGID_62_" cx="396" cy="269" r="64.6"/>
				</defs>
				<clipPath id="SVGID_63_">
					<use xlink:href="#SVGID_62_"  style="overflow:visible;"/>
				</clipPath>
				<path class="st71" d="M475.5,260.2l-31.3-3.7c-33-3.9-66.6-3.9-99.6,0l-31.3,3.7"/>
			</g>
			<g>
				<defs>
					<circle id="SVGID_64_" cx="396" cy="269" r="64.6"/>
				</defs>
				<clipPath id="SVGID_65_">
					<use xlink:href="#SVGID_64_"  style="overflow:visible;"/>
				</clipPath>
				<path class="st72" d="M475.5,239.4l-31.3-3.7c-33-3.9-66.6-3.9-99.6,0l-31.3,3.7"/>
			</g>
			<g>
				<defs>
					<circle id="SVGID_66_" cx="396" cy="269" r="64.6"/>
				</defs>
				<clipPath id="SVGID_67_">
					<use xlink:href="#SVGID_66_"  style="overflow:visible;"/>
				</clipPath>
				<path class="st73" d="M475.5,222.8l-31.3-3.7c-33-3.9-66.6-3.9-99.6,0l-31.3,3.7"/>
			</g>
			<g>
				<defs>
					<circle id="SVGID_68_" cx="396" cy="269" r="64.6"/>
				</defs>
				<clipPath id="SVGID_69_">
					<use xlink:href="#SVGID_68_"  style="overflow:visible;"/>
				</clipPath>
				<path class="st74" d="M313.5,276l31.3,3.7c33,3.9,66.6,3.9,99.6,0l31.3-3.7"/>
			</g>
		</g>
		<circle class="st5" cx="375" cy="278.7" r="4.1"/>
		<circle class="st5" cx="416.9" cy="278.7" r="4.1"/>
		<circle class="st61" cx="372.7" cy="277.7" r="0.7"/>
		<circle class="st61" cx="414.6" cy="277.7" r="0.7"/>
		<path class="st24" d="M396,333.6c35.7,0,64.6-28.9,64.6-64.6c0-19-8.2-36.1-21.3-47.9c10.4,11.4,16.7,26.6,16.7,43.3
			c0,35.7-33.6,68.5-69.2,68.5"/>
		<path class="st75" d="M460.5,269"/>
		<path class="st75" d="M331.4,269"/>
		
			<ellipse transform="matrix(5.909717e-02 -0.9983 0.9983 5.909717e-02 47.3169 645.5029)" class="st76" cx="366.1" cy="297.7" rx="6.3" ry="13.2"/>
	</g>
	<path class="st77" d="M412.2,308.4c0,0-4.5,2.4-16.3,2.4c-12.7,0-16.3-2.4-16.3-2.4"/>
</g>
<g class="st1">
	<g class="st4">
		<circle class="st78" cx="396" cy="463.4" r="37"/>
		<path class="st79" d="M395.9,500.4c20.4,0,36.9-16.5,36.9-36.9c0-10.9-4.7-20.6-12.2-27.4c5.9,6.5,9.5,15.2,9.5,24.7
			c0,20.4-19.2,39.2-39.6,39.2"/>
		<path class="st80" d="M395.8,426.5c-20.4,0-36.9,16.5-36.9,36.9c0,10.9,4.7,20.6,12.2,27.4c-5.9-6.5-9.5-15.2-9.5-24.7
			c0-20.4,19.2-39.2,39.6-39.2"/>
	</g>
	<g class="st4">
		<line class="st81" x1="383" y1="469.5" x2="388.4" y2="474.9"/>
		<line class="st81" x1="388.4" y1="469.5" x2="383" y2="474.9"/>
		<line class="st81" x1="403.5" y1="469.5" x2="408.9" y2="474.9"/>
		<line class="st81" x1="408.9" y1="469.5" x2="403.5" y2="474.9"/>
	</g>
	<circle class="st82" cx="396" cy="486.4" r="3.2"/>
</g>
<text transform="matrix(1 0 0 1 132.1387 176.4416)" class="st83 st49 st84">Mercury</text>
<text transform="matrix(1 0 0 1 362.207 176.4416)" class="st83 st49 st84">Venus</text>
<text transform="matrix(1 0 0 1 588.0635 176.4416)" class="st83 st49 st84">Earth</text>
<text transform="matrix(1 0 0 1 148.6704 369.5735)" class="st83 st49 st84">Mars</text>
<text transform="matrix(1 0 0 1 360.2314 369.5735)" class="st83 st49 st84">Jupiter</text>
<text transform="matrix(1 0 0 1 581.4443 369.5735)" class="st83 st49 st84">Saturn</text>
<text transform="matrix(1 0 0 1 130.1226 549.3859)" class="st83 st49 st84">Neptune</text>
<text transform="matrix(1 0 0 1 357.5874 549.3859)" class="st83 st49 st84">Uranus</text>
<text transform="matrix(1 0 0 1 594.5498 549.3859)" class="st83 st49 st84">Moon</text>
</svg>
